<svg width="316" height="316" viewBox="0 0 316 316" fill="none" xmlns="http://www.w3.org/2000/svg">
<g opacity="0.1">
<path d="M91.9342 256.101C91.9342 259.728 94.8742 262.668 98.5009 262.668H216.701C220.328 262.668 223.268 259.728 223.268 256.101C223.268 252.474 226.208 249.534 229.834 249.534H249.534V269.234C249.534 272.861 246.594 275.801 242.968 275.801H229.834C226.208 275.801 223.268 278.741 223.268 282.368C223.268 285.994 220.328 288.934 216.701 288.934H98.5009C94.8742 288.934 91.9342 285.994 91.9342 282.368C91.9342 278.741 88.9943 275.801 85.3676 275.801H72.2342C68.6076 275.801 65.6676 272.861 65.6676 269.234V249.534H85.3676C88.9943 249.534 91.9342 252.474 91.9342 256.101Z" fill="#F7931A"/>
<path d="M65.6676 85.3676C65.6676 88.9943 62.7276 91.9342 59.1009 91.9342C55.4742 91.9342 52.5342 94.8742 52.5342 98.5009V216.701C52.5342 220.328 55.4742 223.268 59.1009 223.268C62.7276 223.268 65.6676 226.208 65.6676 229.834V249.534H45.9676C42.3409 249.534 39.4009 246.594 39.4009 242.968V229.834C39.4009 226.208 36.4609 223.268 32.8342 223.268C29.2076 223.268 26.2676 220.328 26.2676 216.701V98.5009C26.2676 94.8742 29.2076 91.9342 32.8342 91.9342C36.4609 91.9342 39.4009 88.9943 39.4009 85.3676V72.2342C39.4009 68.6076 42.3409 65.6676 45.9676 65.6676H65.6676V85.3676Z" fill="#F7931A"/>
<path d="M275.801 242.968C275.801 246.594 272.861 249.534 269.234 249.534H249.534V229.834C249.534 226.208 252.474 223.268 256.101 223.268C259.728 223.268 262.668 220.328 262.668 216.701V98.5009C262.668 94.8742 259.728 91.9342 256.101 91.9342C252.474 91.9342 249.534 88.9943 249.534 85.3676V65.6676H269.234C272.861 65.6676 275.801 68.6076 275.801 72.2342V85.3676C275.801 88.9943 278.741 91.9342 282.368 91.9342C285.994 91.9342 288.934 94.8742 288.934 98.5009V216.701C288.934 220.328 285.994 223.268 282.368 223.268C278.741 223.268 275.801 226.208 275.801 229.834V242.968Z" fill="#F7931A"/>
<path d="M223.268 32.8342C223.268 36.4609 226.208 39.4009 229.834 39.4009H242.968C246.594 39.4009 249.534 42.3409 249.534 45.9676V65.6676H229.834C226.208 65.6676 223.268 62.7276 223.268 59.1009C223.268 55.4742 220.328 52.5342 216.701 52.5342H98.5009C94.8742 52.5342 91.9342 55.4742 91.9342 59.1009C91.9342 62.7276 88.9943 65.6676 85.3676 65.6676H65.6676V45.9676C65.6676 42.3409 68.6076 39.4009 72.2342 39.4009H85.3676C88.9943 39.4009 91.9342 36.4609 91.9342 32.8342C91.9342 29.2076 94.8742 26.2676 98.5009 26.2676H216.701C220.328 26.2676 223.268 29.2076 223.268 32.8342Z" fill="#F7931A"/>
<path d="M160.598 80.7481C161.608 77.2648 165.25 75.2595 168.733 76.2692L176.302 78.463C179.785 79.4726 181.79 83.1149 180.781 86.5982L175.819 103.717C174.809 107.201 171.167 109.206 167.683 108.196L160.115 106.002C156.632 104.993 154.626 101.351 155.636 97.8673L160.598 80.7481Z" fill="#F7931A"/>
<path d="M124.579 91.7953C125.588 88.312 129.231 86.3067 132.714 87.3163L200.83 107.06C204.313 108.07 206.319 111.712 205.309 115.195L203.22 122.403C202.21 125.887 198.568 127.892 195.085 126.882L126.968 107.139C123.485 106.129 121.48 102.487 122.489 99.0033L124.579 91.7953Z" fill="#F7931A"/>
<path d="M123.179 134.365C124.188 130.881 127.831 128.876 131.314 129.886L199.43 149.63C202.914 150.639 204.919 154.282 203.909 157.765L199.992 171.28L125.568 149.708C122.085 148.698 120.08 145.056 121.09 141.573L123.179 134.365Z" fill="#F7931A"/>
<path d="M101.596 171.084C102.606 167.601 106.248 165.595 109.732 166.605L187.939 189.274C191.422 190.284 193.428 193.926 192.418 197.409L190.329 204.617C189.319 208.101 185.677 210.106 182.194 209.096L103.986 186.427C100.503 185.418 98.4974 181.775 99.5071 178.292L101.596 171.084Z" fill="#F7931A"/>
<path d="M128.998 189.77C130.007 186.287 133.649 184.282 137.133 185.291L144.701 187.485C148.184 188.495 150.19 192.137 149.18 195.62L144.218 212.739C143.208 216.223 139.566 218.228 136.083 217.218L128.514 215.025C125.031 214.015 123.026 210.373 124.035 206.889L128.998 189.77Z" fill="#F7931A"/>
<path d="M134.67 94.7203C135.68 91.237 139.322 89.2317 142.805 90.2414L150.374 92.4351C153.857 93.4448 155.862 97.087 154.853 100.57L129.781 187.067C128.771 190.55 125.129 192.556 121.646 191.546L114.077 189.352C110.594 188.343 108.589 184.7 109.598 181.217L134.67 94.7203Z" fill="#F7931A"/>
<path d="M190.872 89.5232C191.882 86.0399 195.524 84.0346 199.007 85.0442L206.576 87.238C210.059 88.2476 212.064 91.8899 211.055 95.3732L204.264 118.799L190.389 114.778C186.906 113.768 184.9 110.126 185.91 106.642L190.872 89.5232Z" fill="#F7931A"/>
<path d="M189.472 132.093C190.482 128.609 194.124 126.604 197.607 127.614L205.176 129.807C208.659 130.817 210.664 134.459 209.655 137.943L199.992 171.28L179.809 165.43L189.472 132.093Z" fill="#F7931A"/>
<path d="M192.345 122.181C193.355 118.698 196.997 116.693 200.48 117.703L204.264 118.799L189.9 168.355L179.809 165.43L192.345 122.181Z" fill="#F7931A"/>
<path d="M189.9 168.355L203.776 172.377C207.259 173.386 209.265 177.029 208.255 180.512L206.166 187.72C205.156 191.203 201.514 193.209 198.03 192.199L190.462 190.005C186.979 188.996 184.973 185.353 185.983 181.87L189.9 168.355Z" fill="#F7931A"/>
<path d="M191.311 163.489C192.118 160.703 195.032 159.099 197.819 159.906C200.606 160.714 202.21 163.628 201.402 166.414L193.202 194.706C192.192 198.189 188.55 200.195 185.066 199.185L181.282 198.088L191.311 163.489Z" fill="#F7931A"/>
<path d="M159.271 198.545C160.281 195.062 163.923 193.057 167.407 194.066L181.282 198.088L174.492 221.514C173.482 224.998 169.84 227.003 166.357 225.993L158.788 223.8C155.305 222.79 153.3 219.148 154.309 215.664L159.271 198.545Z" fill="#F7931A"/>
</g>
</svg>
