<svg width="167" height="167" viewBox="0 0 167 167" fill="none" xmlns="http://www.w3.org/2000/svg">
<path d="M125.393 0C129.028 3.56705e-05 131.975 2.91625 131.975 6.51367V9.66211C131.975 13.2593 134.922 16.1755 138.557 16.1758H144.042C147.677 16.1758 150.625 19.092 150.625 22.6895V29.6377C150.625 33.235 153.572 36.1514 157.207 36.1514H160.389C164.024 36.1515 166.971 39.0677 166.971 42.665V123.109C166.971 126.707 164.024 129.623 160.389 129.623H157.207C153.572 129.623 150.625 132.539 150.625 136.137V142.868C150.625 146.466 147.677 149.382 144.042 149.382H138.557C134.922 149.382 131.975 152.298 131.975 155.896V160.455C131.975 164.053 129.028 166.969 125.393 166.969H41.5781C37.9428 166.969 34.9961 164.053 34.9961 160.455V155.896C34.996 152.298 32.0483 149.382 28.4131 149.382H22.9277C19.2927 149.382 16.3457 146.465 16.3457 142.868V136.137C16.3455 132.539 13.3988 129.623 9.76367 129.623H6.58203C2.94681 129.623 2.43725e-07 126.707 0 123.109V42.665C-7.40887e-08 39.0676 2.94681 36.1515 6.58203 36.1514H9.76367C13.3988 36.1513 16.3455 33.235 16.3457 29.6377V22.6895C16.3457 19.0922 19.2927 16.176 22.9277 16.1758H28.4131C32.0483 16.1758 34.996 13.2595 34.9961 9.66211V6.51367C34.9961 2.91623 37.9428 1.57249e-07 41.5781 0H125.393Z" fill="#6DF2FE"/>
</svg>
