<svg width="98" height="98" viewBox="0 0 98 98" fill="none" xmlns="http://www.w3.org/2000/svg">
<path d="M40.5273 0C42.0299 0.000141885 43.2469 1.21777 43.2471 2.7207V8.16211C43.2471 9.66518 42.03 10.8827 40.5273 10.8828H24.3438C22.841 10.8828 21.6241 12.1004 21.624 13.6035V18.9092C21.6239 20.4122 20.406 21.6299 18.9033 21.6299H13.5996C12.0969 21.63 10.8799 22.8475 10.8799 24.3506V73.0498C10.8799 74.5529 12.0969 75.7704 13.5996 75.7705H18.9033C20.4061 75.7705 21.624 76.9881 21.624 78.4912V83.7969C21.6242 85.2999 22.8411 86.5176 24.3438 86.5176H40.5273C42.03 86.5177 43.2471 87.7352 43.2471 89.2383V94.6787C43.2471 96.1818 42.03 97.3993 40.5273 97.3994H24.207C22.7045 97.3992 21.4873 96.1817 21.4873 94.6787V89.374C21.4873 87.8709 20.2703 86.6533 18.7676 86.6533H13.4639C11.9611 86.6533 10.7442 85.4357 10.7441 83.9326V78.627C10.744 77.1239 9.5261 75.9062 8.02344 75.9062H2.71973C1.2171 75.9061 0 74.6886 0 73.1855V24.2139C0.000165868 22.7109 1.21721 21.4933 2.71973 21.4932H8.02344C9.5262 21.4932 10.7441 20.2756 10.7441 18.7725V13.4678C10.7441 11.9646 11.9611 10.7471 13.4639 10.7471H18.7676C20.2703 10.7471 21.4873 9.52949 21.4873 8.02637V2.7207C21.4875 1.21784 22.7046 0.000247473 24.207 0H40.5273ZM73.1914 0C74.6941 1.14677e-05 75.911 1.21769 75.9111 2.7207V8.02637C75.9112 9.52936 77.1283 10.7469 78.6309 10.7471H83.9355C85.4381 10.7473 86.6553 11.9648 86.6553 13.4678V18.7725C86.6553 20.2756 87.8722 21.4932 89.375 21.4932H94.6787C96.1814 21.4932 97.3983 22.7108 97.3984 24.2139V73.1855C97.3984 74.6887 96.1815 75.9062 94.6787 75.9062H89.375C87.8723 75.9062 86.6554 77.1239 86.6553 78.627V83.9326C86.6552 85.4356 85.4381 86.6531 83.9355 86.6533H78.6309C77.1283 86.6535 75.9111 87.871 75.9111 89.374V94.6787C75.9111 96.1819 74.6942 97.3994 73.1914 97.3994H56.8721C55.3693 97.3994 54.1523 96.1819 54.1523 94.6787V89.2383C54.1523 87.7351 55.3693 86.5176 56.8721 86.5176H73.0557C74.5582 86.5174 75.7752 85.2998 75.7754 83.7969V78.4912C75.7754 76.9881 76.9924 75.7706 78.4951 75.7705H83.7988C85.3016 75.7705 86.5195 74.553 86.5195 73.0498V24.3506C86.5195 22.8474 85.3016 21.6299 83.7988 21.6299H78.4951C76.9925 21.6298 75.7755 20.4122 75.7754 18.9092V13.6035C75.7753 12.1005 74.5583 10.883 73.0557 10.8828H56.8721C55.3693 10.8828 54.1523 9.66527 54.1523 8.16211V2.7207C54.1525 1.21769 55.3694 0 56.8721 0H73.1914ZM28.2344 26.8867C28.954 26.8867 29.6451 27.176 30.1543 27.6885L42.6084 40.2314C43.1174 40.7454 43.4033 41.4409 43.4033 42.166V45.7607C43.4033 47.2712 44.6188 48.4959 46.1191 48.4961H51.2793C52.7798 48.4961 53.9951 47.2713 53.9951 45.7607V42.166C53.9951 41.4408 54.2819 40.744 54.791 40.2314L67.2441 27.6885C67.7533 27.1746 68.4445 26.8868 69.1641 26.8867H72.8701C74.3705 26.8868 75.5859 28.1115 75.5859 29.6221V33.627C75.5859 34.3522 75.2992 35.0489 74.79 35.5615L62.6084 47.8301C62.0992 48.344 61.4081 48.6318 60.6885 48.6318H56.8467C55.3463 48.6319 54.1309 49.8567 54.1309 51.3672V67.7783C54.1309 69.2889 52.9155 70.5137 51.415 70.5137H45.9834C44.4831 70.5135 43.2676 69.2888 43.2676 67.7783V51.3672C43.2676 49.8566 42.0522 48.6318 40.5518 48.6318H36.7109C35.9913 48.6318 35.3002 48.3427 34.791 47.8301L22.6094 35.5615C22.1002 35.0475 21.8135 34.3522 21.8135 33.627V29.6221C21.8135 28.1115 23.0288 26.8867 24.5293 26.8867H28.2344ZM94.6797 0C96.1795 0.000166756 97.3992 1.22051 97.3994 2.7207C97.3994 4.22104 96.1796 5.44124 94.6797 5.44141C93.1796 5.44141 91.959 4.22114 91.959 2.7207C91.9592 1.2204 93.1797 0 94.6797 0ZM94.6797 0.427734C93.415 0.427734 92.3869 1.45574 92.3867 2.7207C92.3867 3.98581 93.4149 5.01465 94.6797 5.01465C95.9443 5.01448 96.9727 3.9857 96.9727 2.7207C96.9725 1.45584 95.9442 0.427901 94.6797 0.427734ZM94.7344 1.06152C95.4225 1.06152 96.0483 1.49393 96.2891 2.13867L96.3057 2.18359H95.8447L95.835 2.16602C95.6215 1.74704 95.1983 1.48634 94.7305 1.48633C94.0492 1.48633 93.4953 2.03933 93.4951 2.7207C93.4951 3.40223 94.0491 3.95605 94.7305 3.95605H94.7646V3.96191C95.2202 3.9496 95.6283 3.69065 95.835 3.28125L95.8447 3.26367H96.3057L96.2891 3.30859C96.047 3.95339 95.4225 4.38574 94.7344 4.38574C93.8178 4.38567 93.0723 3.64045 93.0723 2.72363C93.0723 1.80687 93.8179 1.0616 94.7344 1.06152Z" fill="#131313"/>
</svg>
