<svg width="125" height="20" viewBox="0 0 125 20" fill="none" xmlns="http://www.w3.org/2000/svg">
<g clip-path="url(#clip0_14059_10389)">
<path d="M122.793 17.5C122.105 17.5 121.545 18.0605 121.545 18.7498C121.545 19.4391 122.105 19.9997 122.793 19.9997C123.482 19.9997 124.042 19.4391 124.042 18.7498C124.042 18.0605 123.482 17.5 122.793 17.5ZM122.793 19.8034C122.213 19.8034 121.741 19.331 121.741 18.7498C121.741 18.1687 122.213 17.6962 122.793 17.6962C123.374 17.6962 123.846 18.1687 123.846 18.7498C123.846 19.331 123.374 19.8034 122.793 19.8034Z" fill="#6DF2FE"/>
<path d="M123.327 18.9981L123.323 19.0062C123.228 19.1943 123.04 19.313 122.831 19.3186V19.3161H122.816C122.503 19.3161 122.249 19.0618 122.249 18.7487C122.249 18.4356 122.503 18.1813 122.816 18.1813C123.03 18.1813 123.225 18.3013 123.323 18.4938L123.327 18.5019H123.539L123.531 18.4813C123.421 18.1851 123.133 17.9863 122.818 17.9863C122.397 17.9863 122.055 18.3288 122.055 18.75C122.055 19.1712 122.397 19.5136 122.818 19.5136C123.133 19.5136 123.42 19.3149 123.531 19.0187L123.539 18.9981H123.327Z" fill="#6DF2FE"/>
<path d="M30.9624 0.00390625H28.4653C27.7755 0.00390625 27.2168 0.56508 27.2168 1.25749V18.747C27.2168 19.4394 27.7755 20.0006 28.4653 20.0006H30.9624C31.6522 20.0006 32.2109 19.4394 32.2109 18.747V1.25749C32.2109 0.56508 31.6522 0.00390625 30.9624 0.00390625Z" fill="#6DF2FE"/>
<path d="M53.3746 0H40.8892C40.1994 0 39.6407 0.561174 39.6407 1.25358V3.69825C39.6407 4.39066 39.082 4.95183 38.3922 4.95183H35.9575C35.2677 4.95183 34.709 5.513 34.709 6.20541V6.76971C34.709 7.46211 35.2677 8.02329 35.9575 8.02329H38.3922C39.082 8.02329 39.6407 8.58446 39.6407 9.27687V10.7498C39.6407 11.4422 39.082 12.0034 38.3922 12.0034H35.9575C35.2677 12.0034 34.709 12.5645 34.709 13.257V13.8213C34.709 14.5137 35.2677 15.0748 35.9575 15.0748H38.3922C39.082 15.0748 39.6407 15.636 39.6407 16.3284V18.7418C39.6407 19.4342 40.1994 19.9954 40.8892 19.9954H53.3746C54.0644 19.9954 54.6231 19.4342 54.6231 18.7418V16.3284C54.6231 15.636 54.0644 15.0748 53.3746 15.0748H40.9517C40.2618 15.0748 39.7031 14.5137 39.7031 13.8213V13.257C39.7031 12.5645 40.2618 12.0034 40.9517 12.0034H45.8522C46.542 12.0034 47.1007 11.4422 47.1007 10.7498V9.27687C47.1007 8.58446 46.542 8.02329 45.8522 8.02329H40.9517C40.2618 8.02329 39.7031 7.46211 39.7031 6.76971V6.20541C39.7031 5.513 40.2618 4.95183 40.9517 4.95183H53.3746C54.0644 4.95183 54.6231 4.39066 54.6231 3.69825V1.25358C54.6231 0.561174 54.0644 0 53.3746 0Z" fill="#6DF2FE"/>
<path d="M73.6323 15.0798H63.3525C62.6639 15.0798 62.1058 14.5187 62.1058 13.8256V1.25421C62.1058 0.561799 61.5477 0 60.8591 0H58.3658C57.6772 0 57.1191 0.561174 57.1191 1.25421V13.8263C57.1191 14.5187 57.6772 15.0805 58.3658 15.0805H60.8273C61.5159 15.0805 62.0739 15.6416 62.0739 16.3347V18.7431C62.0739 19.4355 62.632 19.9973 63.3206 19.9973H73.6323C74.166 19.9973 74.5986 19.5624 74.5986 19.0256V16.0516C74.5986 15.5148 74.166 15.0798 73.6323 15.0798Z" fill="#6DF2FE"/>
<path d="M95.9529 4.95246H93.5258C92.8385 4.95246 92.281 4.39128 92.281 3.69887V1.25358C92.281 0.561174 91.7235 0 91.0362 0H78.3405C77.6532 0 77.0957 0.561174 77.0957 1.25358V4.0432C77.0957 4.58001 77.5277 5.01495 78.0602 5.01495C78.5927 5.01495 79.0247 5.44989 79.0247 5.98669V14.0731C79.0247 14.6099 78.5927 15.0448 78.0602 15.0448C77.5277 15.0448 77.0957 15.4798 77.0957 16.0166V18.7437C77.0957 19.4361 77.6532 19.9973 78.3405 19.9973H91.0362C91.7235 19.9973 92.281 19.4361 92.281 18.7437V16.3297C92.281 15.6373 92.8385 15.0761 93.5258 15.0761H95.9529C96.6403 15.0761 97.1977 14.5149 97.1977 13.8225V6.20604C97.1977 5.51363 96.6403 4.95246 95.9529 4.95246ZM92.2192 9.9674V13.7913C92.2192 14.4837 91.6617 15.0448 90.9744 15.0448H83.3197C82.6323 15.0448 82.0749 14.4837 82.0749 13.7913V6.26915C82.0749 5.57675 82.6323 5.01557 83.3197 5.01557H90.9744C91.6617 5.01557 92.2192 5.57675 92.2192 6.26915V9.9674Z" fill="#6DF2FE"/>
<path d="M109.762 11.2185L109.793 13.8163C109.802 14.5012 110.358 15.053 111.042 15.053H118.423C119.113 15.053 119.672 15.6129 119.672 16.3047V18.7456C119.672 19.4367 119.113 19.9973 118.423 19.9973H110.932C110.918 19.9973 110.905 19.9954 110.892 19.9954H103.563V19.9942C103.543 19.9954 103.524 19.9973 103.503 19.9973H100.944C100.255 19.9973 99.6953 19.4367 99.6953 18.7456V16.3047C99.6953 15.6129 100.255 15.053 100.944 15.053H103.441C104.131 15.053 104.689 14.4924 104.689 13.8006V11.1404C104.689 10.4492 105.249 9.88866 105.938 9.88866H108.419C109.114 9.88866 109.676 9.31874 109.667 8.62133L109.637 6.21166C109.629 5.52675 109.072 4.97558 108.389 4.97558H100.944C100.255 4.97558 99.6953 4.41503 99.6953 3.72387V1.25171C99.6953 0.560549 100.255 0 100.944 0H115.717V0.0193724C115.785 0.00749899 115.855 0 115.926 0H118.423C119.113 0 119.672 0.560549 119.672 1.25171V3.72387C119.672 4.41503 119.113 4.97558 118.423 4.97558H115.989C115.299 4.97558 114.74 5.53613 114.74 6.22728V8.69945C114.74 9.39123 114.181 9.95115 113.492 9.95115H111.011C110.315 9.95115 109.754 10.5211 109.762 11.2185Z" fill="#6DF2FE"/>
<path d="M20.8861 0.36745L15.161 6.11667C14.9269 6.35164 14.7951 6.67097 14.7951 7.00343V8.65133C14.7951 9.34374 14.2364 9.90491 13.5466 9.90491H11.1744C10.4846 9.90491 9.92585 9.34374 9.92585 8.65133V7.00343C9.92585 6.67097 9.79413 6.35227 9.56003 6.11667L3.83487 0.36745C3.60077 0.132482 3.28302 0 2.95216 0H1.24853C0.558719 0 0 0.561174 0 1.25358V3.08958C0 3.42204 0.13172 3.74074 0.365821 3.97634L5.96612 9.59995C6.20022 9.83492 6.51797 9.9674 6.84883 9.9674H8.61489C9.3047 9.9674 9.86342 10.5286 9.86342 11.221V18.7437C9.86342 19.4361 10.4221 19.9973 11.112 19.9973H13.609C14.2988 19.9973 14.8576 19.4361 14.8576 18.7437V11.221C14.8576 10.5286 15.4163 9.9674 16.1061 9.9674H17.8721C18.203 9.9674 18.5208 9.83554 18.7549 9.59995L24.3552 3.97634C24.5893 3.74137 24.721 3.42204 24.721 3.08958V1.25358C24.721 0.561174 24.1623 0 23.4724 0H21.7688C21.438 0 21.1202 0.131857 20.8861 0.36745Z" fill="#6DF2FE"/>
</g>
<defs>
<clipPath id="clip0_14059_10389">
<rect width="124.041" height="19.9998" fill="white"/>
</clipPath>
</defs>
</svg>
