<svg width="14" height="14" viewBox="0 0 14 14" fill="none" xmlns="http://www.w3.org/2000/svg">
<path d="M2 13C2 13.5523 1.55228 14 1 14C0.447715 14 0 13.5523 0 13C0 12.4477 0.447715 12 1 12H2V13ZM14 13C14 13.5523 13.5523 14 13 14C12.4477 14 12 13.5523 12 13V12H13C13.5523 12 14 12.4477 14 13ZM4 10V11C4 11.5523 3.55228 12 3 12H2V11C2 10.4477 2.44772 10 3 10H4ZM12 12H11C10.4477 12 10 11.5523 10 11V10H11C11.5523 10 12 10.4477 12 11V12ZM6 9C6 9.55229 5.55228 10 5 10H4V9C4 8.44771 4.44772 8 5 8H6V9ZM10 10H9C8.44771 10 8 9.55229 8 9V8H9C9.55229 8 10 8.44771 10 9V10ZM8 8H6V6H8V8ZM6 6H5C4.44772 6 4 5.55228 4 5V4H5C5.55228 4 6 4.44772 6 5V6ZM10 5C10 5.55228 9.55229 6 9 6H8V5C8 4.44772 8.44771 4 9 4H10V5ZM4 4H3C2.44772 4 2 3.55228 2 3V2H3C3.55228 2 4 2.44772 4 3V4ZM12 3C12 3.55228 11.5523 4 11 4H10V3C10 2.44772 10.4477 2 11 2H12V3ZM2 2H1C0.447715 2 0 1.55228 0 1C0 0.447715 0.447715 0 1 0C1.55228 0 2 0.447715 2 1V2ZM14 1C14 1.55228 13.5523 2 13 2H12V1C12 0.447715 12.4477 0 13 0C13.5523 0 14 0.447715 14 1Z" fill="#6DF2FE"/>
</svg>
