<svg width="18" height="18" viewBox="0 0 18 18" fill="none" xmlns="http://www.w3.org/2000/svg">
<path d="M7 17.5C7 17.7761 6.77614 18 6.5 18H0.5C0.223858 18 0 17.7761 0 17.5V13.5C0 13.2239 0.223858 13 0.5 13H1.5C1.77614 13 2 13.2239 2 13.5V15.5C2 15.7761 2.22386 16 2.5 16H6.5C6.77614 16 7 16.2239 7 16.5V17.5ZM18 17.5C18 17.7761 17.7761 18 17.5 18H11.5C11.2239 18 11 17.7761 11 17.5V16.5C11 16.2239 11.2239 16 11.5 16H15.5C15.7761 16 16 15.7761 16 15.5V13.5C16 13.2239 16.2239 13 16.5 13H17.5C17.7761 13 18 13.2239 18 13.5V17.5ZM2 9.5C2 9.77614 1.77614 10 1.5 10H0.5C0.223858 10 0 9.77614 0 9.5V8.5C0 8.22386 0.223858 8 0.5 8H1.5C1.77614 8 2 8.22386 2 8.5V9.5ZM6 9.5C6 9.77614 5.77614 10 5.5 10H4.5C4.22386 10 4 9.77614 4 9.5V8.5C4 8.22386 4.22386 8 4.5 8H5.5C5.77614 8 6 8.22386 6 8.5V9.5ZM10 9.5C10 9.77614 9.77614 10 9.5 10H8.5C8.22386 10 8 9.77614 8 9.5V8.5C8 8.22386 8.22386 8 8.5 8H9.5C9.77614 8 10 8.22386 10 8.5V9.5ZM14 9.5C14 9.77614 13.7761 10 13.5 10H12.5C12.2239 10 12 9.77614 12 9.5V8.5C12 8.22386 12.2239 8 12.5 8H13.5C13.7761 8 14 8.22386 14 8.5V9.5ZM18 9.5C18 9.77614 17.7761 10 17.5 10H16.5C16.2239 10 16 9.77614 16 9.5V8.5C16 8.22386 16.2239 8 16.5 8H17.5C17.7761 8 18 8.22386 18 8.5V9.5ZM7 1.5C7 1.77614 6.77614 2 6.5 2H2.5C2.22386 2 2 2.22386 2 2.5V4.5C2 4.77614 1.77614 5 1.5 5H0.5C0.223858 5 0 4.77614 0 4.5V0.5C0 0.223858 0.223858 0 0.5 0H6.5C6.77614 0 7 0.223858 7 0.5V1.5ZM18 4.5C18 4.77614 17.7761 5 17.5 5H16.5C16.2239 5 16 4.77614 16 4.5V2.5C16 2.22386 15.7761 2 15.5 2H11.5C11.2239 2 11 1.77614 11 1.5V0.5C11 0.223858 11.2239 0 11.5 0H17.5C17.7761 0 18 0.223858 18 0.5V4.5Z" fill="white"/>
</svg>
