<svg width="160" height="160" viewBox="0 0 160 160" fill="none" xmlns="http://www.w3.org/2000/svg">
<path d="M66.5742 0C69.0428 0 71.043 2.00045 71.043 4.46973V13.4082C71.0428 15.8773 69.0427 17.877 66.5742 17.877H39.9893C37.5207 17.877 35.5215 19.8774 35.5215 22.3467V31.0615C35.5214 33.5308 33.5213 35.5303 31.0527 35.5303H22.3408C19.8722 35.5303 17.8721 37.5307 17.8721 40V120C17.8721 122.469 19.8722 124.47 22.3408 124.47H31.0527C33.5213 124.47 35.5214 126.469 35.5215 128.938V137.653C35.5215 140.123 37.5207 142.123 39.9893 142.123H66.5742C69.0427 142.123 71.0428 144.123 71.043 146.592V155.53C71.043 158 69.0428 160 66.5742 160H39.7656C37.2972 160 35.2979 157.999 35.2979 155.53V146.815C35.2977 144.346 33.2985 142.347 30.8301 142.347H22.1172C19.6486 142.347 17.6494 140.346 17.6494 137.877V129.162C17.6494 126.693 15.6493 124.692 13.1807 124.692H4.46777C1.99936 124.692 9.21139e-05 122.693 0 120.224V39.7764C9.10204e-05 37.3073 1.99936 35.3078 4.46777 35.3076H13.1807C15.6493 35.3076 17.6494 33.3072 17.6494 30.8379V22.123C17.6494 19.6538 19.6486 17.6533 22.1172 17.6533H30.8301C33.2985 17.6532 35.2977 15.6537 35.2979 13.1846V4.46973C35.2979 2.00057 37.2972 0.000192746 39.7656 0H66.5742ZM120.233 0C122.702 0 124.702 2.00045 124.702 4.46973V13.1846C124.702 15.6537 126.701 17.6533 129.17 17.6533H137.883C140.351 17.6534 142.351 19.6538 142.351 22.123V30.8379C142.351 33.307 144.35 35.3074 146.818 35.3076H155.531C158 35.3076 160 37.3072 160 39.7764V120.224C160 122.693 158 124.692 155.531 124.692H146.818C144.35 124.693 142.351 126.693 142.351 129.162V137.877C142.351 140.346 140.351 142.347 137.883 142.347H129.17C126.701 142.347 124.702 144.346 124.702 146.815V155.53C124.702 158 122.702 160 120.233 160H93.4248C90.9563 160 88.957 157.999 88.957 155.53V146.592C88.9572 144.123 90.9565 142.123 93.4248 142.123H120.01C122.478 142.123 124.479 140.123 124.479 137.653V128.938C124.479 126.469 126.478 124.47 128.946 124.47H137.659C140.128 124.47 142.127 122.469 142.127 120V40C142.127 37.5307 140.128 35.5303 137.659 35.5303H128.946C126.478 35.5302 124.479 33.5307 124.479 31.0615V22.3467C124.479 19.8774 122.478 17.877 120.01 17.877H93.4248C90.9565 17.8768 88.9572 15.8772 88.957 13.4082V4.46973C88.957 2.00056 90.9563 0.000169811 93.4248 0H120.233ZM46.3828 44.166C47.565 44.166 48.7007 44.6404 49.5371 45.4824L69.9941 66.0869C70.8305 66.9311 71.3007 68.0733 71.3008 69.2646V75.1709C71.3008 77.6523 73.2979 79.6631 75.7627 79.6631H84.2393C86.7039 79.6629 88.7001 77.6522 88.7002 75.1709V69.2646C88.7003 68.0734 89.1705 66.9289 90.0068 66.0869L110.465 45.4824C111.301 44.6385 112.436 44.1661 113.618 44.166H119.706C122.171 44.166 124.167 46.1769 124.167 48.6582V55.2383C124.167 56.4296 123.697 57.574 122.86 58.416L102.849 78.5703C102.012 79.4145 100.877 79.8876 99.6953 79.8877H93.3848C90.9199 79.8877 88.9229 81.8985 88.9229 84.3799V111.34C88.9229 113.821 86.9268 115.833 84.4619 115.833H75.5391C73.0743 115.833 71.0781 113.821 71.0781 111.34V84.3799C71.0781 81.8986 69.0818 79.8879 66.6172 79.8877H60.3066C59.1244 79.8877 57.9888 79.4124 57.1523 78.5703L37.1416 58.416C36.3051 57.5717 35.834 56.4297 35.834 55.2383V48.6582C35.8342 46.1771 37.8304 44.1662 40.2949 44.166H46.3828ZM155.532 0C157.996 0 160.001 2.00492 160.001 4.46973C160.001 6.93432 157.996 8.93848 155.532 8.93848C153.068 8.93831 151.065 6.93422 151.064 4.46973C151.064 2.00503 153.068 0.00017066 155.532 0ZM155.532 0.702148C153.455 0.702319 151.766 2.39162 151.766 4.46973C151.766 6.54763 153.455 8.23713 155.532 8.2373C157.61 8.2373 159.299 6.54773 159.299 4.46973C159.299 2.39151 157.61 0.702148 155.532 0.702148ZM155.623 1.74219C156.753 1.74239 157.78 2.45285 158.176 3.51172L158.203 3.58594H157.445L157.43 3.55664C157.079 2.86856 156.385 2.43958 155.616 2.43945C154.497 2.43945 153.587 3.3492 153.587 4.46875C153.587 5.58816 154.497 6.49707 155.616 6.49707H155.672V6.50684C156.42 6.48668 157.09 6.06126 157.43 5.38867L157.445 5.36035H158.203L158.176 5.43359C157.778 6.49266 156.753 7.2039 155.623 7.2041C154.117 7.2041 152.893 5.9788 152.893 4.47266C152.893 2.96663 154.117 1.74219 155.623 1.74219Z" fill="#131313"/>
</svg>
