<svg width="287" height="286" viewBox="0 0 287 286" fill="none" xmlns="http://www.w3.org/2000/svg">
<g opacity="0.15">
<path d="M83.7077 233.187C83.7077 236.489 86.3846 239.166 89.6868 239.166H197.312C200.614 239.166 203.291 236.489 203.291 233.187C203.291 229.885 205.968 227.208 209.27 227.208H227.208V245.145C227.208 248.447 224.531 251.124 221.228 251.124H209.27C205.968 251.124 203.291 253.801 203.291 257.103C203.291 260.406 200.614 263.083 197.312 263.083H89.6868C86.3846 263.083 83.7077 260.406 83.7077 257.103C83.7077 253.801 81.0307 251.124 77.7285 251.124H65.7702C62.468 251.124 59.791 248.447 59.791 245.145V227.208H77.7285C81.0307 227.208 83.7077 229.885 83.7077 233.187Z" fill="#F7931A"/>
<path d="M59.791 77.7285C59.791 81.0307 57.114 83.7077 53.8118 83.7077C50.5096 83.7077 47.8327 86.3846 47.8327 89.6868V197.312C47.8327 200.614 50.5096 203.291 53.8118 203.291C57.114 203.291 59.791 205.968 59.791 209.27V227.208H41.8535C38.5513 227.208 35.8743 224.531 35.8743 221.228V209.27C35.8743 205.968 33.1974 203.291 29.8952 203.291C26.593 203.291 23.916 200.614 23.916 197.312V89.6868C23.916 86.3846 26.593 83.7077 29.8952 83.7077C33.1974 83.7077 35.8743 81.0307 35.8743 77.7285V65.7702C35.8743 62.468 38.5513 59.791 41.8535 59.791H59.791V77.7285Z" fill="#F7931A"/>
<path d="M251.124 221.228C251.124 224.531 248.447 227.208 245.145 227.208H227.208V209.27C227.208 205.968 229.885 203.291 233.187 203.291C236.489 203.291 239.166 200.614 239.166 197.312V89.6868C239.166 86.3846 236.489 83.7077 233.187 83.7077C229.885 83.7077 227.208 81.0307 227.208 77.7285V59.791H245.145C248.447 59.791 251.124 62.468 251.124 65.7702V77.7285C251.124 81.0307 253.801 83.7077 257.103 83.7077C260.406 83.7077 263.083 86.3846 263.083 89.6868V197.312C263.083 200.614 260.406 203.291 257.103 203.291C253.801 203.291 251.124 205.968 251.124 209.27V221.228Z" fill="#F7931A"/>
<path d="M203.291 29.8952C203.291 33.1974 205.968 35.8743 209.27 35.8743H221.228C224.531 35.8743 227.208 38.5513 227.208 41.8535V59.791H209.27C205.968 59.791 203.291 57.114 203.291 53.8118C203.291 50.5096 200.614 47.8327 197.312 47.8327H89.6868C86.3846 47.8327 83.7077 50.5096 83.7077 53.8118C83.7077 57.114 81.0307 59.791 77.7285 59.791H59.791V41.8535C59.791 38.5513 62.468 35.8743 65.7702 35.8743H77.7285C81.0307 35.8743 83.7077 33.1974 83.7077 29.8952C83.7077 26.593 86.3846 23.916 89.6868 23.916H197.312C200.614 23.916 203.291 26.593 203.291 29.8952Z" fill="#F7931A"/>
<path d="M146.065 74.088C147.075 70.6047 150.717 68.5995 154.201 69.6091L159.963 71.2795C163.447 72.2891 165.452 75.9314 164.442 79.4147L160.251 93.8737C159.242 97.357 155.599 99.3623 152.116 98.3526L146.353 96.6823C142.87 95.6726 140.865 92.0304 141.874 88.5471L146.065 74.088Z" fill="#F7931A"/>
<path d="M113.268 84.1468C114.278 80.6635 117.92 78.6583 121.404 79.6679L182.297 97.3182C185.781 98.3279 187.786 101.97 186.776 105.453L185.201 110.888C184.191 114.371 180.549 116.377 177.066 115.367L116.172 97.7167C112.689 96.707 110.684 93.0648 111.693 89.5815L113.268 84.1468Z" fill="#F7931A"/>
<path d="M111.994 122.908C113.004 119.424 116.646 117.419 120.129 118.429L181.023 136.079C184.506 137.089 186.511 140.731 185.502 144.214L182.098 155.956L114.898 136.478C111.414 135.468 109.409 131.826 110.419 128.342L111.994 122.908Z" fill="#F7931A"/>
<path d="M92.3424 156.342C93.352 152.859 96.9943 150.853 100.478 151.863L170.56 172.177C174.043 173.186 176.048 176.828 175.039 180.312L173.463 185.746C172.454 189.23 168.811 191.235 165.328 190.225L95.246 169.912C91.7627 168.902 89.7575 165.26 90.7671 161.777L92.3424 156.342Z" fill="#F7931A"/>
<path d="M117.292 173.356C118.302 169.873 121.944 167.868 125.427 168.877L131.19 170.548C134.673 171.557 136.679 175.2 135.669 178.683L131.478 193.142C130.468 196.625 126.826 198.63 123.343 197.621L117.58 195.95C114.097 194.941 112.091 191.299 113.101 187.815L117.292 173.356Z" fill="#F7931A"/>
<path d="M122.457 86.8102C123.467 83.3269 127.109 81.3216 130.592 82.3312L136.355 84.0016C139.838 85.0113 141.843 88.6535 140.834 92.1368L118.332 169.766C117.323 173.25 113.681 175.255 110.197 174.245L104.435 172.575C100.951 171.565 98.9459 167.923 99.9556 164.44L122.457 86.8102Z" fill="#F7931A"/>
<path d="M173.631 82.078C174.64 78.5947 178.283 76.5894 181.766 77.5991L187.529 79.2695C191.012 80.2791 193.017 83.9214 192.008 87.4047L185.989 108.171L173.919 104.672C170.435 103.663 168.43 100.02 169.44 96.537L173.631 82.078Z" fill="#F7931A"/>
<path d="M172.356 120.839C173.366 117.356 177.008 115.35 180.491 116.36L186.254 118.03C189.737 119.04 191.743 122.682 190.733 126.166L182.098 155.956L163.721 150.629L172.356 120.839Z" fill="#F7931A"/>
<path d="M174.972 111.814C175.982 108.331 179.624 106.326 183.107 107.336L185.989 108.171L172.91 153.293L163.721 150.629L174.972 111.814Z" fill="#F7931A"/>
<path d="M172.91 153.293L184.98 156.791C188.463 157.801 190.468 161.443 189.458 164.926L187.883 170.361C186.874 173.844 183.231 175.85 179.748 174.84L173.985 173.17C170.502 172.16 168.497 168.518 169.506 165.034L172.91 153.293Z" fill="#F7931A"/>
<path d="M174.194 148.862C174.929 146.325 177.582 144.864 180.12 145.6C182.657 146.335 184.118 148.988 183.382 151.526L176.079 176.722C175.069 180.205 171.427 182.211 167.944 181.201L165.062 180.366L174.194 148.862Z" fill="#F7931A"/>
<path d="M144.857 181.346C145.867 177.863 149.509 175.858 152.993 176.867L165.062 180.366L159.043 201.132C158.034 204.615 154.391 206.62 150.908 205.611L145.145 203.94C141.662 202.931 139.657 199.289 140.666 195.805L144.857 181.346Z" fill="#F7931A"/>
</g>
</svg>
