<svg width="316" height="316" viewBox="0 0 316 316" fill="none" xmlns="http://www.w3.org/2000/svg">
<g opacity="0.1">
<path d="M91.9333 256.1C91.9333 259.727 94.8733 262.667 98.5 262.667H216.7C220.327 262.667 223.267 259.727 223.267 256.1C223.267 252.473 226.207 249.533 229.833 249.533H249.533V269.233C249.533 272.86 246.593 275.8 242.967 275.8H229.833C226.207 275.8 223.267 278.74 223.267 282.367C223.267 285.993 220.327 288.933 216.7 288.933H98.5C94.8733 288.933 91.9333 285.993 91.9333 282.367C91.9333 278.74 88.9933 275.8 85.3667 275.8H72.2333C68.6067 275.8 65.6667 272.86 65.6667 269.233V249.533H85.3667C88.9933 249.533 91.9333 252.473 91.9333 256.1Z" fill="#F7931A"/>
<path d="M65.6667 85.3666C65.6667 88.9933 62.7267 91.9333 59.1 91.9333C55.4733 91.9333 52.5333 94.8733 52.5333 98.4999V216.7C52.5333 220.327 55.4733 223.267 59.1 223.267C62.7267 223.267 65.6667 226.207 65.6667 229.833V249.533H45.9667C42.34 249.533 39.4 246.593 39.4 242.967V229.833C39.4 226.207 36.46 223.267 32.8333 223.267C29.2067 223.267 26.2667 220.327 26.2667 216.7V98.4999C26.2667 94.8733 29.2067 91.9333 32.8333 91.9333C36.46 91.9333 39.4 88.9933 39.4 85.3666V72.2333C39.4 68.6066 42.34 65.6666 45.9667 65.6666H65.6667V85.3666Z" fill="#F7931A"/>
<path d="M275.8 242.967C275.8 246.593 272.86 249.533 269.233 249.533H249.533V229.833C249.533 226.207 252.473 223.267 256.1 223.267C259.727 223.267 262.667 220.327 262.667 216.7V98.4999C262.667 94.8733 259.727 91.9333 256.1 91.9333C252.473 91.9333 249.533 88.9933 249.533 85.3666V65.6666H269.233C272.86 65.6666 275.8 68.6066 275.8 72.2333V85.3666C275.8 88.9933 278.74 91.9333 282.367 91.9333C285.993 91.9333 288.933 94.8733 288.933 98.4999V216.7C288.933 220.327 285.993 223.267 282.367 223.267C278.74 223.267 275.8 226.207 275.8 229.833V242.967Z" fill="#F7931A"/>
<path d="M223.267 32.8333C223.267 36.4599 226.207 39.3999 229.833 39.3999H242.967C246.593 39.3999 249.533 42.3399 249.533 45.9666V65.6666H229.833C226.207 65.6666 223.267 62.7266 223.267 59.0999C223.267 55.4733 220.327 52.5333 216.7 52.5333H98.5C94.8733 52.5333 91.9333 55.4733 91.9333 59.0999C91.9333 62.7266 88.9933 65.6666 85.3667 65.6666H65.6667V45.9666C65.6667 42.3399 68.6067 39.3999 72.2333 39.3999H85.3667C88.9933 39.3999 91.9333 36.4599 91.9333 32.8333C91.9333 29.2066 94.8733 26.2666 98.5 26.2666H216.7C220.327 26.2666 223.267 29.2066 223.267 32.8333Z" fill="#F7931A"/>
<path d="M160.598 80.7489C161.608 77.2656 165.25 75.2603 168.733 76.2699L176.302 78.4637C179.785 79.4733 181.79 83.1156 180.781 86.5989L175.819 103.718C174.809 107.201 171.167 109.207 167.683 108.197L160.115 106.003C156.632 104.994 154.626 101.351 155.636 97.868L160.598 80.7489Z" fill="#F7931A"/>
<path d="M124.579 91.796C125.588 88.3127 129.231 86.3074 132.714 87.3171L200.83 107.061C204.313 108.071 206.319 111.713 205.309 115.196L203.22 122.404C202.21 125.887 198.568 127.893 195.085 126.883L126.968 107.139C123.485 106.13 121.48 102.487 122.489 99.0041L124.579 91.796Z" fill="#F7931A"/>
<path d="M123.179 134.365C124.188 130.882 127.831 128.877 131.314 129.886L199.43 149.63C202.914 150.64 204.919 154.282 203.909 157.766L199.992 171.281L125.568 149.709C122.085 148.699 120.08 145.057 121.09 141.573L123.179 134.365Z" fill="#F7931A"/>
<path d="M101.596 171.085C102.606 167.601 106.248 165.596 109.732 166.606L187.939 189.275C191.422 190.284 193.428 193.927 192.418 197.41L190.329 204.618C189.319 208.101 185.677 210.107 182.194 209.097L103.986 186.428C100.503 185.418 98.4974 181.776 99.5071 178.293L101.596 171.085Z" fill="#F7931A"/>
<path d="M128.998 189.771C130.007 186.288 133.649 184.282 137.133 185.292L144.701 187.486C148.184 188.495 150.19 192.138 149.18 195.621L144.218 212.74C143.208 216.223 139.566 218.229 136.083 217.219L128.514 215.025C125.031 214.016 123.026 210.373 124.035 206.89L128.998 189.771Z" fill="#F7931A"/>
<path d="M134.67 94.721C135.68 91.2377 139.322 89.2324 142.805 90.2421L150.374 92.4359C153.857 93.4455 155.862 97.0878 154.853 100.571L129.781 187.068C128.771 190.551 125.129 192.556 121.646 191.547L114.077 189.353C110.594 188.343 108.589 184.701 109.598 181.218L134.67 94.721Z" fill="#F7931A"/>
<path d="M190.872 89.5239C191.882 86.0406 195.524 84.0353 199.007 85.045L206.576 87.2387C210.059 88.2484 212.064 91.8906 211.055 95.3739L204.264 118.8L190.389 114.778C186.906 113.769 184.9 110.126 185.91 106.643L190.872 89.5239Z" fill="#F7931A"/>
<path d="M189.472 132.093C190.482 128.61 194.124 126.605 197.607 127.614L205.176 129.808C208.659 130.818 210.664 134.46 209.655 137.943L199.992 171.281L179.809 165.431L189.472 132.093Z" fill="#F7931A"/>
<path d="M192.345 122.182C193.355 118.699 196.997 116.694 200.48 117.703L204.264 118.8L189.9 168.356L179.809 165.431L192.345 122.182Z" fill="#F7931A"/>
<path d="M189.9 168.356L203.776 172.378C207.259 173.387 209.265 177.029 208.255 180.513L206.166 187.721C205.156 191.204 201.514 193.209 198.03 192.2L190.462 190.006C186.979 188.996 184.973 185.354 185.983 181.871L189.9 168.356Z" fill="#F7931A"/>
<path d="M191.311 163.49C192.118 160.704 195.032 159.099 197.819 159.907C200.606 160.715 202.21 163.629 201.402 166.415L193.202 194.707C192.192 198.19 188.55 200.195 185.066 199.186L181.282 198.089L191.311 163.49Z" fill="#F7931A"/>
<path d="M159.271 198.546C160.281 195.063 163.923 193.057 167.407 194.067L181.282 198.089L174.492 221.515C173.482 224.998 169.84 227.004 166.357 225.994L158.788 223.8C155.305 222.791 153.3 219.148 154.309 215.665L159.271 198.546Z" fill="#F7931A"/>
</g>
</svg>
