<svg width="20" height="20" viewBox="0 0 20 20" fill="none" xmlns="http://www.w3.org/2000/svg">
<path d="M5.83268 16.2493C5.83268 16.4795 6.01923 16.666 6.24935 16.666H13.7493C13.9795 16.666 14.166 16.4795 14.166 16.2493C14.166 16.0192 14.3526 15.8327 14.5827 15.8327H15.8327V17.0827C15.8327 17.3128 15.6461 17.4993 15.416 17.4993H14.5827C14.3526 17.4993 14.166 17.6859 14.166 17.916C14.166 18.1461 13.9795 18.3327 13.7493 18.3327H6.24935C6.01923 18.3327 5.83268 18.1461 5.83268 17.916C5.83268 17.6859 5.64613 17.4993 5.41601 17.4993H4.58268C4.35256 17.4993 4.16602 17.3128 4.16602 17.0827V15.8327H5.41601C5.64613 15.8327 5.83268 16.0192 5.83268 16.2493Z" fill="#F7931A"/>
<path d="M4.16602 5.41601C4.16602 5.64613 3.97947 5.83268 3.74935 5.83268C3.51923 5.83268 3.33268 6.01923 3.33268 6.24935V13.7493C3.33268 13.9795 3.51923 14.166 3.74935 14.166C3.97947 14.166 4.16602 14.3526 4.16602 14.5827V15.8327H2.91602C2.6859 15.8327 2.49935 15.6461 2.49935 15.416V14.5827C2.49935 14.3526 2.3128 14.166 2.08268 14.166C1.85256 14.166 1.66602 13.9795 1.66602 13.7493V6.24935C1.66602 6.01923 1.85256 5.83268 2.08268 5.83268C2.3128 5.83268 2.49935 5.64613 2.49935 5.41601V4.58268C2.49935 4.35256 2.6859 4.16602 2.91602 4.16602H4.16602V5.41601Z" fill="#F7931A"/>
<path d="M17.4993 15.416C17.4993 15.6461 17.3128 15.8327 17.0827 15.8327H15.8327V14.5827C15.8327 14.3526 16.0192 14.166 16.2493 14.166C16.4795 14.166 16.666 13.9795 16.666 13.7493V6.24935C16.666 6.01923 16.4795 5.83268 16.2493 5.83268C16.0192 5.83268 15.8327 5.64613 15.8327 5.41601V4.16602H17.0827C17.3128 4.16602 17.4993 4.35256 17.4993 4.58268V5.41601C17.4993 5.64613 17.6859 5.83268 17.916 5.83268C18.1461 5.83268 18.3327 6.01923 18.3327 6.24935V13.7493C18.3327 13.9795 18.1461 14.166 17.916 14.166C17.6859 14.166 17.4993 14.3526 17.4993 14.5827V15.416Z" fill="#F7931A"/>
<path d="M14.166 2.08268C14.166 2.3128 14.3526 2.49935 14.5827 2.49935H15.416C15.6461 2.49935 15.8327 2.6859 15.8327 2.91602V4.16602H14.5827C14.3526 4.16602 14.166 3.97947 14.166 3.74935C14.166 3.51923 13.9795 3.33268 13.7493 3.33268H6.24935C6.01923 3.33268 5.83268 3.51923 5.83268 3.74935C5.83268 3.97947 5.64613 4.16602 5.41601 4.16602H4.16602V2.91602C4.16602 2.6859 4.35256 2.49935 4.58268 2.49935H5.41601C5.64613 2.49935 5.83268 2.3128 5.83268 2.08268C5.83268 1.85256 6.01923 1.66602 6.24935 1.66602H13.7493C13.9795 1.66602 14.166 1.85256 14.166 2.08268Z" fill="#F7931A"/>
<path d="M10.1665 5.20304C10.2434 4.93782 10.5207 4.78513 10.7859 4.86201L11.1061 4.9548C11.3713 5.03168 11.524 5.30901 11.4471 5.57424L11.1787 6.5004C11.1018 6.76563 10.8245 6.91831 10.5592 6.84143L10.2391 6.74864C9.97386 6.67176 9.82117 6.39443 9.89805 6.1292L10.1665 5.20304Z" fill="#F7931A"/>
<path d="M7.881 5.904C7.95788 5.63878 8.23521 5.48609 8.50043 5.56297L12.6625 6.76935C12.9277 6.84623 13.0804 7.12356 13.0035 7.38878L12.9173 7.68607C12.8404 7.95129 12.5631 8.10398 12.2979 8.0271L8.13587 6.82072C7.87064 6.74384 7.71795 6.46651 7.79483 6.20129L7.881 5.904Z" fill="#F7931A"/>
<path d="M7.79218 8.60511C7.86906 8.33988 8.14639 8.18719 8.41161 8.26407L12.5736 9.47045C12.8389 9.54733 12.9915 9.82466 12.9147 10.0899L12.6893 10.8674L8.04705 9.52183C7.78182 9.44495 7.62913 9.16762 7.70601 8.90239L7.79218 8.60511Z" fill="#F7931A"/>
<path d="M6.42274 10.935C6.49961 10.6698 6.77694 10.5171 7.04217 10.594L11.8445 11.986C12.1097 12.0628 12.2624 12.3402 12.1855 12.6054L12.0994 12.9027C12.0225 13.1679 11.7452 13.3206 11.4799 13.2437L6.6776 11.8517C6.41238 11.7749 6.25969 11.4975 6.33657 11.2323L6.42274 10.935Z" fill="#F7931A"/>
<path d="M8.16139 12.1207C8.23826 11.8555 8.51559 11.7028 8.78082 11.7796L9.10097 11.8724C9.3662 11.9493 9.51888 12.2267 9.44201 12.4919L9.17355 13.418C9.09668 13.6833 8.81935 13.836 8.55412 13.7591L8.23397 13.6663C7.96874 13.5894 7.81606 13.3121 7.89293 13.0468L8.16139 12.1207Z" fill="#F7931A"/>
<path d="M8.52131 6.0896C8.59819 5.82437 8.87552 5.67169 9.14074 5.74856L9.4609 5.84136C9.72612 5.91824 9.87881 6.19557 9.80193 6.46079L8.2575 11.7891C8.18062 12.0543 7.90329 12.207 7.63807 12.1301L7.31791 12.0373C7.05269 11.9605 6.9 11.6831 6.97688 11.4179L8.52131 6.0896Z" fill="#F7931A"/>
<path d="M12.0874 5.75983C12.1643 5.49461 12.4416 5.34192 12.7069 5.4188L13.027 5.5116C13.2922 5.58847 13.4449 5.8658 13.3681 6.13103L12.9604 7.53742L12.16 7.30543C11.8948 7.22855 11.7421 6.95122 11.819 6.686L12.0874 5.75983Z" fill="#F7931A"/>
<path d="M11.9986 8.46094C12.0755 8.19571 12.3528 8.04303 12.618 8.1199L12.9382 8.2127C13.2034 8.28958 13.3561 8.56691 13.2792 8.83213L12.6893 10.8674L11.4087 10.4962L11.9986 8.46094Z" fill="#F7931A"/>
<path d="M12.1809 7.83206C12.2578 7.56683 12.5351 7.41415 12.8003 7.49103L12.9604 7.53742L12.049 10.6818L11.4087 10.4962L12.1809 7.83206Z" fill="#F7931A"/>
<path d="M12.049 10.6818L12.8494 10.9138C13.1146 10.9907 13.2673 11.268 13.1904 11.5332L13.1042 11.8305C13.0274 12.0957 12.75 12.2484 12.4848 12.1716L12.1647 12.0788C11.8994 12.0019 11.7467 11.7246 11.8236 11.4593L12.049 10.6818Z" fill="#F7931A"/>
<path d="M12.1385 10.3731C12.1897 10.1963 12.3746 10.0945 12.5514 10.1457C12.7282 10.197 12.83 10.3819 12.7788 10.5587L12.2816 12.2738C12.2048 12.539 11.9274 12.6917 11.6622 12.6148L11.5021 12.5684L12.1385 10.3731Z" fill="#F7931A"/>
<path d="M10.0823 12.6775C10.1592 12.4123 10.4365 12.2596 10.7018 12.3364L11.5021 12.5684L11.0945 13.9748C11.0176 14.2401 10.7403 14.3927 10.4751 14.3159L10.1549 14.2231C9.88968 14.1462 9.73699 13.8689 9.81387 13.6036L10.0823 12.6775Z" fill="#F7931A"/>
</svg>
