<svg width="10" height="10" viewBox="0 0 10 10" fill="none" xmlns="http://www.w3.org/2000/svg">
<path d="M5.625 3.125C5.625 2.77982 5.34518 2.5 5 2.5C4.65482 2.5 4.375 2.77982 4.375 3.125V3.75H5.625V3.125ZM4.375 3.75H3.75C3.40482 3.75 3.125 4.02982 3.125 4.375V5H3.75C4.09518 5 4.375 4.72018 4.375 4.375V3.75ZM6.875 4.375C6.875 4.02982 6.59518 3.75 6.25 3.75H5.625V4.375C5.625 4.72018 5.90482 5 6.25 5H6.875V4.375ZM3.125 5H2.5C2.15482 5 1.875 5.27982 1.875 5.625V6.25H2.5C2.84518 6.25 3.125 5.97018 3.125 5.625V5ZM8.125 5.625C8.125 5.27982 7.84518 5 7.5 5H6.875V5.625C6.875 5.97018 7.15482 6.25 7.5 6.25H8.125V5.625ZM1.875 6.25H1.25C0.904822 6.25 0.625 6.52982 0.625 6.875C0.625 7.22018 0.904822 7.5 1.25 7.5C1.59518 7.5 1.875 7.22018 1.875 6.875V6.25ZM9.375 6.875C9.375 6.52982 9.09518 6.25 8.75 6.25H8.125V6.875C8.125 7.22018 8.40482 7.5 8.75 7.5C9.09518 7.5 9.375 7.22018 9.375 6.875Z" fill="#77FF23"/>
</svg>
