<svg width="22" height="20" viewBox="0 0 22 20" fill="none" xmlns="http://www.w3.org/2000/svg">
<g clip-path="url(#clip0_12149_11473)">
<rect width="22" height="20" fill="#080808" fill-opacity="0.4"/>
<path d="M5 1H1V19H5V20H0V0H5V1Z" fill="white"/>
<path d="M22 20H17V19H21V1H17V0H22V20Z" fill="white"/>
<path d="M8 13V14C8 14.5523 7.55228 15 7 15C6.44772 15 6 14.5523 6 14C6 13.4477 6.44772 13 7 13H8ZM16 14C16 14.5523 15.5523 15 15 15C14.4477 15 14 14.5523 14 14V13H15C15.5523 13 16 13.4477 16 14ZM10 12C10 12.5523 9.55228 13 9 13H8V12C8 11.4477 8.44772 11 9 11H10V12ZM14 13H13C12.4477 13 12 12.5523 12 12V11H13C13.5523 11 14 11.4477 14 12V13ZM12 11H10V9H12V11ZM10 9H9C8.44772 9 8 8.55228 8 8V7H9C9.55228 7 10 7.44772 10 8V9ZM14 8C14 8.55228 13.5523 9 13 9H12V8C12 7.44772 12.4477 7 13 7H14V8ZM8 7H7C6.44772 7 6 6.55228 6 6C6 5.44772 6.44772 5 7 5C7.55228 5 8 5.44772 8 6V7ZM16 6C16 6.55228 15.5523 7 15 7H14V6C14 5.44772 14.4477 5 15 5C15.5523 5 16 5.44772 16 6Z" fill="white"/>
</g>
<defs>
<clipPath id="clip0_12149_11473">
<rect width="22" height="20" fill="white"/>
</clipPath>
</defs>
</svg>
