<svg width="16" height="16" viewBox="0 0 16 16" fill="none" xmlns="http://www.w3.org/2000/svg">
<g clip-path="url(#clip0_16061_3735)">
<mask id="path-1-inside-1_16061_3735" fill="white">
<path d="M3.35421 7.5998C3.35422 7.51145 3.37169 7.42398 3.4056 7.34239C3.43952 7.26082 3.48921 7.18675 3.55183 7.12443C3.61446 7.06211 3.68877 7.01277 3.77051 6.97924C3.85225 6.94572 3.93981 6.92868 4.02816 6.9291L5.14556 6.93274C5.32371 6.93274 5.49457 7.00352 5.62054 7.12949C5.74652 7.25546 5.8173 7.42632 5.8173 7.60448V11.8295C5.94309 11.7922 6.10465 11.7524 6.28143 11.7108C6.40423 11.6819 6.51366 11.6124 6.592 11.5136C6.67032 11.4147 6.71294 11.2922 6.71291 11.1661V5.92513C6.71291 5.74696 6.78367 5.57608 6.90964 5.45009C7.03561 5.32409 7.20648 5.2533 7.38465 5.25326H8.50426C8.68242 5.2533 8.85328 5.32409 8.97925 5.45009C9.10522 5.57608 9.176 5.74696 9.176 5.92513V10.7893C9.176 10.7893 9.45632 10.6758 9.72936 10.5606C9.83079 10.5177 9.91734 10.4459 9.97824 10.3541C10.0391 10.2623 10.0716 10.1547 10.0717 10.0445V4.24578C10.0717 4.06765 10.1425 3.8968 10.2684 3.77083C10.3944 3.64486 10.5652 3.57408 10.7433 3.57404H11.863C12.0411 3.57404 12.212 3.64481 12.338 3.77079C12.4639 3.89676 12.5347 4.06762 12.5347 4.24578V9.02094C13.5054 8.31746 14.489 7.47141 15.2697 6.45404C15.383 6.30637 15.4579 6.13296 15.4878 5.9493C15.5177 5.76564 15.5017 5.57741 15.4412 5.40142C15.0799 4.36179 14.5056 3.40902 13.7549 2.6041C13.0042 1.7992 12.0937 1.15986 11.0818 0.727007C10.0698 0.294159 8.97863 0.0773311 7.87806 0.0904014C6.77749 0.103472 5.69178 0.346152 4.6904 0.80291C3.68901 1.25967 2.794 1.92045 2.06265 2.74296C1.33129 3.56547 0.779695 4.53161 0.44316 5.57954C0.106626 6.62747 -0.00743612 7.73411 0.108271 8.82865C0.223978 9.92319 0.566909 10.9815 1.11511 11.9359C1.21061 12.1006 1.35111 12.2345 1.5201 12.3221C1.68909 12.4096 1.87956 12.4472 2.06914 12.4302C2.28091 12.4116 2.54458 12.3852 2.85808 12.3484C2.99455 12.3329 3.12054 12.2678 3.21206 12.1654C3.30358 12.0629 3.35422 11.9304 3.35434 11.7931L3.35421 7.5998Z"/>
<path d="M3.32977 14.3764C4.5099 15.2349 5.90457 15.7503 7.35944 15.8654C8.81432 15.9804 10.2727 15.6909 11.5731 15.0285C12.8736 14.3661 13.9655 13.3569 14.728 12.1126C15.4904 10.8682 15.8938 9.43708 15.8934 7.97766C15.8934 7.79554 15.8849 7.61538 15.8728 7.43626C12.9826 11.7469 7.646 13.7622 3.33001 14.3757"/>
</mask>
<path d="M3.35421 7.5998C3.35422 7.51145 3.37169 7.42398 3.4056 7.34239C3.43952 7.26082 3.48921 7.18675 3.55183 7.12443C3.61446 7.06211 3.68877 7.01277 3.77051 6.97924C3.85225 6.94572 3.93981 6.92868 4.02816 6.9291L5.14556 6.93274C5.32371 6.93274 5.49457 7.00352 5.62054 7.12949C5.74652 7.25546 5.8173 7.42632 5.8173 7.60448V11.8295C5.94309 11.7922 6.10465 11.7524 6.28143 11.7108C6.40423 11.6819 6.51366 11.6124 6.592 11.5136C6.67032 11.4147 6.71294 11.2922 6.71291 11.1661V5.92513C6.71291 5.74696 6.78367 5.57608 6.90964 5.45009C7.03561 5.32409 7.20648 5.2533 7.38465 5.25326H8.50426C8.68242 5.2533 8.85328 5.32409 8.97925 5.45009C9.10522 5.57608 9.176 5.74696 9.176 5.92513V10.7893C9.176 10.7893 9.45632 10.6758 9.72936 10.5606C9.83079 10.5177 9.91734 10.4459 9.97824 10.3541C10.0391 10.2623 10.0716 10.1547 10.0717 10.0445V4.24578C10.0717 4.06765 10.1425 3.8968 10.2684 3.77083C10.3944 3.64486 10.5652 3.57408 10.7433 3.57404H11.863C12.0411 3.57404 12.212 3.64481 12.338 3.77079C12.4639 3.89676 12.5347 4.06762 12.5347 4.24578V9.02094C13.5054 8.31746 14.489 7.47141 15.2697 6.45404C15.383 6.30637 15.4579 6.13296 15.4878 5.9493C15.5177 5.76564 15.5017 5.57741 15.4412 5.40142C15.0799 4.36179 14.5056 3.40902 13.7549 2.6041C13.0042 1.7992 12.0937 1.15986 11.0818 0.727007C10.0698 0.294159 8.97863 0.0773311 7.87806 0.0904014C6.77749 0.103472 5.69178 0.346152 4.6904 0.80291C3.68901 1.25967 2.794 1.92045 2.06265 2.74296C1.33129 3.56547 0.779695 4.53161 0.44316 5.57954C0.106626 6.62747 -0.00743612 7.73411 0.108271 8.82865C0.223978 9.92319 0.566909 10.9815 1.11511 11.9359C1.21061 12.1006 1.35111 12.2345 1.5201 12.3221C1.68909 12.4096 1.87956 12.4472 2.06914 12.4302C2.28091 12.4116 2.54458 12.3852 2.85808 12.3484C2.99455 12.3329 3.12054 12.2678 3.21206 12.1654C3.30358 12.0629 3.35422 11.9304 3.35434 11.7931L3.35421 7.5998Z" fill="white"/>
<path d="M3.32977 14.3764C4.5099 15.2349 5.90457 15.7503 7.35944 15.8654C8.81432 15.9804 10.2727 15.6909 11.5731 15.0285C12.8736 14.3661 13.9655 13.3569 14.728 12.1126C15.4904 10.8682 15.8938 9.43708 15.8934 7.97766C15.8934 7.79554 15.8849 7.61538 15.8728 7.43626C12.9826 11.7469 7.646 13.7622 3.33001 14.3757" fill="white"/>
<path d="M3.35421 7.5998L2.47186 7.59967L2.47186 7.59983L3.35421 7.5998ZM3.4056 7.34239L2.59085 7.00368L2.59083 7.00373L3.4056 7.34239ZM3.55183 7.12443L2.92947 6.49895L2.92941 6.49902L3.55183 7.12443ZM4.02816 6.9291L4.024 7.81144L4.02528 7.81145L4.02816 6.9291ZM5.14556 6.93274L5.14268 7.81509H5.14556V6.93274ZM5.62054 7.12949L4.99662 7.75341L4.99665 7.75344L5.62054 7.12949ZM5.8173 11.8295H4.93495V13.0118L6.06835 12.6754L5.8173 11.8295ZM6.28143 11.7108L6.0797 10.8518L6.07919 10.8519L6.28143 11.7108ZM6.592 11.5136L7.2836 12.0615L7.28365 12.0614L6.592 11.5136ZM6.71291 11.1661L5.83056 11.1661L5.83056 11.1663L6.71291 11.1661ZM7.38465 5.25326L7.38465 4.37091L7.38446 4.37091L7.38465 5.25326ZM8.50426 5.25326L8.50445 4.37091H8.50426V5.25326ZM9.176 10.7893H8.29365V12.0981L9.50696 11.6072L9.176 10.7893ZM9.72936 10.5606L10.0725 11.3735L10.073 11.3733L9.72936 10.5606ZM9.97824 10.3541L9.24303 9.86622L9.243 9.86627L9.97824 10.3541ZM10.0717 10.0445L10.9541 10.0454V10.0445H10.0717ZM10.7433 3.57404L10.7433 2.69169L10.7431 2.69169L10.7433 3.57404ZM12.5347 9.02094H11.6523V10.7501L13.0525 9.73539L12.5347 9.02094ZM15.2697 6.45404L15.9697 6.99117L15.9697 6.99116L15.2697 6.45404ZM15.4412 5.40142L16.2757 5.11462L16.2747 5.11173L15.4412 5.40142ZM13.7549 2.6041L14.4001 2.0023L14.4001 2.00229L13.7549 2.6041ZM11.0818 0.727007L11.4288 -0.0842488L11.4288 -0.0842492L11.0818 0.727007ZM7.87806 0.0904014L7.88854 0.972692L7.88854 0.972692L7.87806 0.0904014ZM4.6904 0.80291L5.05658 1.6057L5.05658 1.6057L4.6904 0.80291ZM2.06265 2.74296L2.72203 3.32928L2.72203 3.32927L2.06265 2.74296ZM0.44316 5.57954L1.28326 5.84934L1.28326 5.84933L0.44316 5.57954ZM0.108271 8.82865L0.985735 8.73589L0.985735 8.73589L0.108271 8.82865ZM1.11511 11.9359L0.34999 12.3754L0.351879 12.3787L1.11511 11.9359ZM2.06914 12.4302L1.99193 11.5513L1.99068 11.5514L2.06914 12.4302ZM2.85808 12.3484L2.75855 11.4717L2.75517 11.4721L2.85808 12.3484ZM3.21206 12.1654L2.55415 11.5774L2.55411 11.5774L3.21206 12.1654ZM3.35434 11.7931L4.23669 11.7939L4.23669 11.7931L3.35434 11.7931ZM7.35944 15.8654L7.28984 16.745L7.28992 16.745L7.35944 15.8654ZM14.728 12.1126L15.4803 12.5736L15.4804 12.5735L14.728 12.1126ZM15.8934 7.97766L15.011 7.97766L15.011 7.97789L15.8934 7.97766ZM15.8728 7.43626L16.7532 7.3768L16.5791 4.79859L15.14 6.94488L15.8728 7.43626ZM3.35421 7.5998L4.23656 7.59993C4.23656 7.62783 4.23104 7.65541 4.22038 7.68106L3.4056 7.34239L2.59083 7.00373C2.51235 7.19255 2.47189 7.39506 2.47186 7.59967L3.35421 7.5998ZM3.4056 7.34239L4.22036 7.6811C4.20966 7.70685 4.19398 7.73021 4.17425 7.74984L3.55183 7.12443L2.92941 6.49902C2.78444 6.6433 2.66938 6.81479 2.59085 7.00368L3.4056 7.34239ZM3.55183 7.12443L4.17419 7.7499C4.15453 7.76946 4.13113 7.78502 4.10529 7.79562L3.77051 6.97924L3.43572 6.16287C3.2464 6.24051 3.07439 6.35475 2.92947 6.49895L3.55183 7.12443ZM3.77051 6.97924L4.10529 7.79562C4.0795 7.8062 4.05187 7.81157 4.024 7.81144L4.02816 6.9291L4.03232 6.04676C3.82775 6.04579 3.62501 6.08525 3.43572 6.16287L3.77051 6.97924ZM4.02816 6.9291L4.02528 7.81145L5.14268 7.81509L5.14556 6.93274L5.14844 6.05039L4.03104 6.04675L4.02816 6.9291ZM5.14556 6.93274V7.81509C5.08967 7.81509 5.03611 7.7929 4.99662 7.75341L5.62054 7.12949L6.24446 6.50557C5.95302 6.21414 5.55774 6.05039 5.14556 6.05039V6.93274ZM5.62054 7.12949L4.99665 7.75344C4.95714 7.71393 4.93495 7.66035 4.93495 7.60448H5.8173H6.69965C6.69965 7.1923 6.5359 6.79699 6.24442 6.50554L5.62054 7.12949ZM5.8173 7.60448H4.93495V11.8295H5.8173H6.69965V7.60448H5.8173ZM5.8173 11.8295L6.06835 12.6754C6.16751 12.646 6.30717 12.6112 6.48366 12.5696L6.28143 11.7108L6.07919 10.8519C5.90213 10.8936 5.71867 10.9384 5.56625 10.9836L5.8173 11.8295ZM6.28143 11.7108L6.48316 12.5697C6.79966 12.4954 7.08172 12.3163 7.2836 12.0615L6.592 11.5136L5.90039 10.9656C5.94561 10.9086 6.0088 10.8684 6.0797 10.8518L6.28143 11.7108ZM6.592 11.5136L7.28365 12.0614C7.48547 11.8066 7.59533 11.4911 7.59526 11.1659L6.71291 11.1661L5.83056 11.1663C5.83054 11.0934 5.85517 11.0227 5.90035 10.9657L6.592 11.5136ZM6.71291 11.1661H7.59526V5.92513H6.71291H5.83056V11.1661H6.71291ZM6.71291 5.92513H7.59526C7.59526 5.98092 7.5731 6.03446 7.53363 6.07394L6.90964 5.45009L6.28566 4.82623C5.99424 5.11771 5.83056 5.51299 5.83056 5.92513H6.71291ZM6.90964 5.45009L7.53363 6.07394C7.49413 6.11345 7.44059 6.1356 7.38484 6.13561L7.38465 5.25326L7.38446 4.37091C6.97236 4.371 6.5771 4.53473 6.28566 4.82623L6.90964 5.45009ZM7.38465 5.25326V6.13561H8.50426V5.25326V4.37091H7.38465V5.25326ZM8.50426 5.25326L8.50406 6.13561C8.44829 6.1356 8.39476 6.11344 8.35527 6.07394L8.97925 5.45009L9.60323 4.82623C9.3118 4.53474 8.91654 4.371 8.50445 4.37091L8.50426 5.25326ZM8.97925 5.45009L8.35527 6.07394C8.31582 6.03449 8.29365 5.98097 8.29365 5.92513H9.176H10.0584C10.0584 5.51295 9.89462 5.11768 9.60323 4.82623L8.97925 5.45009ZM9.176 5.92513H8.29365V10.7893H9.176H10.0584V5.92513H9.176ZM9.176 10.7893C9.50696 11.6072 9.50697 11.6072 9.50698 11.6072C9.50698 11.6072 9.50699 11.6072 9.507 11.6072C9.50702 11.6072 9.50704 11.6072 9.50706 11.6072C9.50711 11.6071 9.50718 11.6071 9.50726 11.6071C9.50743 11.607 9.50766 11.6069 9.50797 11.6068C9.50857 11.6065 9.50944 11.6062 9.51056 11.6057C9.51282 11.6048 9.5161 11.6035 9.52034 11.6018C9.52882 11.5983 9.54114 11.5933 9.55674 11.587C9.58793 11.5743 9.63228 11.5562 9.68527 11.5344C9.79096 11.4911 9.93226 11.4327 10.0725 11.3735L9.72936 10.5606L9.38623 9.74768C9.25343 9.80373 9.11805 9.85969 9.01532 9.90184C8.96409 9.92286 8.92129 9.94033 8.89139 9.9525C8.87644 9.95859 8.86473 9.96334 8.85681 9.96656C8.85286 9.96816 8.84985 9.96938 8.84786 9.97019C8.84687 9.97059 8.84613 9.97089 8.84566 9.97108C8.84542 9.97117 8.84525 9.97124 8.84514 9.97129C8.84509 9.97131 8.84506 9.97132 8.84504 9.97133C8.84503 9.97133 8.84502 9.97133 8.84502 9.97134C8.84502 9.97134 8.84503 9.97133 8.84502 9.97133C8.84503 9.97133 8.84503 9.97133 9.176 10.7893ZM9.72936 10.5606L10.073 11.3733C10.3341 11.2629 10.5568 11.078 10.7135 10.8419L9.97824 10.3541L9.243 9.86627C9.27787 9.81372 9.32748 9.77252 9.38572 9.7479L9.72936 10.5606ZM9.97824 10.3541L10.7134 10.842C10.8702 10.6057 10.9538 10.3287 10.9541 10.0454L10.0717 10.0445L9.18939 10.0437C9.18945 9.98068 9.20805 9.91894 9.24303 9.86622L9.97824 10.3541ZM10.0717 10.0445H10.9541V4.24578H10.0717H9.18939V10.0445H10.0717ZM10.0717 4.24578H10.9541C10.9541 4.30161 10.9319 4.35517 10.8924 4.39468L10.2684 3.77083L9.64445 3.14698C9.35306 3.43843 9.18939 3.83369 9.18939 4.24578H10.0717ZM10.2684 3.77083L10.8924 4.39468C10.8529 4.43421 10.7993 4.45638 10.7435 4.45639L10.7433 3.57404L10.7431 2.69169C10.3311 2.69178 9.93586 2.85551 9.64445 3.14698L10.2684 3.77083ZM10.7433 3.57404V4.45639H11.863V3.57404V2.69169H10.7433V3.57404ZM11.863 3.57404V4.45639C11.8071 4.45639 11.7535 4.4342 11.714 4.39471L12.338 3.77079L12.9619 3.14687C12.6704 2.85541 12.2751 2.69169 11.863 2.69169V3.57404ZM12.338 3.77079L11.714 4.39471C11.6745 4.35521 11.6523 4.30164 11.6523 4.24578H12.5347H13.4171C13.4171 3.8336 13.2533 3.43831 12.9619 3.14687L12.338 3.77079ZM12.5347 4.24578H11.6523V9.02094H12.5347H13.4171V4.24578H12.5347ZM12.5347 9.02094L13.0525 9.73539C14.0613 9.00429 15.1182 8.10088 15.9697 6.99117L15.2697 6.45404L14.5696 5.91691C13.8599 6.84193 12.9495 7.63062 12.0169 8.30648L12.5347 9.02094ZM15.2697 6.45404L15.9697 6.99116C16.1717 6.72782 16.3053 6.41861 16.3587 6.09117L15.4878 5.9493L14.6169 5.80743C14.6104 5.84732 14.5942 5.88492 14.5696 5.91693L15.2697 6.45404ZM15.4878 5.9493L16.3587 6.09117C16.412 5.76379 16.3835 5.42829 16.2757 5.11462L15.4412 5.40142L14.6068 5.68823C14.62 5.72653 14.6234 5.76749 14.6169 5.80743L15.4878 5.9493ZM15.4412 5.40142L16.2747 5.11173C15.873 3.95614 15.2346 2.89706 14.4001 2.0023L13.7549 2.6041L13.1096 3.20591C13.7765 3.92098 14.2867 4.76743 14.6078 5.69112L15.4412 5.40142ZM13.7549 2.6041L14.4001 2.00229C13.5657 1.10758 12.5536 0.3969 11.4288 -0.0842488L11.0818 0.727007L10.7348 1.53826C11.6338 1.92281 12.4427 2.49082 13.1096 3.20592L13.7549 2.6041ZM11.0818 0.727007L11.4288 -0.0842492C10.3039 -0.565396 9.09095 -0.806418 7.86758 -0.791889L7.87806 0.0904014L7.88854 0.972692C8.8663 0.96108 9.83572 1.15371 10.7348 1.53826L11.0818 0.727007ZM7.87806 0.0904014L7.86758 -0.791889C6.64421 -0.777361 5.43735 -0.507601 4.32423 0.000125595L4.6904 0.80291L5.05658 1.6057C5.94622 1.19991 6.91078 0.984304 7.88854 0.972692L7.87806 0.0904014ZM4.6904 0.80291L4.32423 0.00012419C3.2111 0.50785 2.21622 1.24236 1.40326 2.15666L2.06265 2.74296L2.72203 3.32927C3.37178 2.59854 4.16692 2.01149 5.05658 1.6057L4.6904 0.80291ZM2.06265 2.74296L1.40326 2.15665C0.590294 3.07094 -0.0228495 4.14489 -0.396935 5.30975L0.44316 5.57954L1.28326 5.84933C1.58224 4.91833 2.07228 4.06 2.72203 3.32928L2.06265 2.74296ZM0.44316 5.57954L-0.396935 5.30975C-0.771021 6.47461 -0.897811 7.70473 -0.769192 8.92141L0.108271 8.82865L0.985735 8.73589C0.882939 7.76348 0.984274 6.78032 1.28326 5.84934L0.44316 5.57954ZM0.108271 8.82865L-0.769192 8.92141C-0.640574 10.1381 -0.259377 11.3145 0.349997 12.3754L1.11511 11.9359L1.88023 11.4964C1.3932 10.6485 1.08853 9.7083 0.985735 8.73589L0.108271 8.82865ZM1.11511 11.9359L0.351879 12.3787C0.531631 12.6885 0.796085 12.9407 1.11418 13.1055L1.5201 12.3221L1.92602 11.5386C1.90614 11.5283 1.8896 11.5126 1.87835 11.4932L1.11511 11.9359ZM1.5201 12.3221L1.11418 13.1055C1.43228 13.2703 1.79078 13.3409 2.14759 13.3091L2.06914 12.4302L1.99068 11.5514C1.96833 11.5534 1.9459 11.5489 1.92602 11.5386L1.5201 12.3221ZM2.06914 12.4302L2.14634 13.3092C2.36693 13.2898 2.63918 13.2625 2.96098 13.2247L2.85808 12.3484L2.75517 11.4721C2.44999 11.5079 2.19489 11.5334 1.99193 11.5513L2.06914 12.4302ZM2.85808 12.3484L2.95761 13.2251C3.30934 13.1852 3.63411 13.0173 3.87001 12.7533L3.21206 12.1654L2.55411 11.5774C2.60698 11.5183 2.67976 11.4806 2.75855 11.4717L2.85808 12.3484ZM3.21206 12.1654L3.86997 12.7533C4.10587 12.4894 4.23639 12.1478 4.23669 11.7939L3.35434 11.7931L2.47199 11.7923C2.47205 11.713 2.5013 11.6365 2.55415 11.5774L3.21206 12.1654ZM3.35434 11.7931L4.23669 11.7931L4.23656 7.59977L3.35421 7.5998L2.47186 7.59983L2.47199 11.7931L3.35434 11.7931ZM3.32977 14.3764L2.81069 15.0899C4.12245 16.0442 5.67268 16.6171 7.28984 16.745L7.35944 15.8654L7.42904 14.9858C6.13646 14.8836 4.89735 14.4257 3.84884 13.6629L3.32977 14.3764ZM7.35944 15.8654L7.28992 16.745C8.90701 16.8729 10.528 16.551 11.9736 15.8147L11.5731 15.0285L11.1727 14.2422C10.0173 14.8307 8.72163 15.088 7.42896 14.9858L7.35944 15.8654ZM11.5731 15.0285L11.9736 15.8147C13.4191 15.0785 14.6328 13.9567 15.4803 12.5736L14.728 12.1126L13.9757 11.6515C13.2982 12.7571 12.3281 13.6538 11.1727 14.2422L11.5731 15.0285ZM14.728 12.1126L15.4804 12.5735C16.3278 11.1903 16.7762 9.59964 16.7758 7.97742L15.8934 7.97766L15.011 7.97789C15.0114 9.27452 14.653 10.546 13.9756 11.6516L14.728 12.1126ZM15.8934 7.97766H16.7758C16.7758 7.76883 16.7661 7.5674 16.7532 7.3768L15.8728 7.43626L14.9925 7.49572C15.0038 7.66337 15.011 7.82226 15.011 7.97766H15.8934ZM15.8728 7.43626L15.14 6.94488C12.4507 10.9557 7.40984 12.9045 3.20582 13.5022L3.33001 14.3757L3.45421 15.2493C7.88215 14.6198 13.5144 12.5381 16.6057 7.92764L15.8728 7.43626Z" fill="white" mask="url(#path-1-inside-1_16061_3735)"/>
</g>
<defs>
<clipPath id="clip0_16061_3735">
<rect width="16" height="16" fill="white"/>
</clipPath>
</defs>
</svg>
