<svg width="12" height="12" viewBox="0 0 12 12" fill="none" xmlns="http://www.w3.org/2000/svg">
<path d="M8.5 10C8.5 10.2761 8.27614 10.5 8 10.5H4C3.72386 10.5 3.5 10.2761 3.5 10V9.5H8.5V10ZM3.5 9.5H3C2.72386 9.5 2.5 9.27614 2.5 9V8.5H3C3.27614 8.5 3.5 8.72386 3.5 9V9.5ZM9.5 9C9.5 9.27614 9.27614 9.5 9 9.5H8.5V9C8.5 8.72386 8.72386 8.5 9 8.5H9.5V9ZM2.5 8.5H2C1.72386 8.5 1.5 8.27614 1.5 8V4C1.5 3.72386 1.72386 3.5 2 3.5H2.5V8.5ZM6 5.5C6.27614 5.5 6.5 5.72386 6.5 6V8C6.5 8.27614 6.27614 8.5 6 8.5C5.72386 8.5 5.5 8.27614 5.5 8V6C5.5 5.72386 5.72386 5.5 6 5.5ZM10.5 8C10.5 8.27614 10.2761 8.5 10 8.5H9.5V3.5H10C10.2761 3.5 10.5 3.72386 10.5 4V8ZM6.5 4C6.5 4.27614 6.27614 4.5 6 4.5C5.72386 4.5 5.5 4.27614 5.5 4C5.5 3.72386 5.72386 3.5 6 3.5C6.27614 3.5 6.5 3.72386 6.5 4ZM3.5 3C3.5 3.27614 3.27614 3.5 3 3.5H2.5V3C2.5 2.72386 2.72386 2.5 3 2.5H3.5V3ZM9.5 3.5H9C8.72386 3.5 8.5 3.27614 8.5 3V2.5H9C9.27614 2.5 9.5 2.72386 9.5 3V3.5ZM8.5 2.5H3.5V2C3.5 1.72386 3.72386 1.5 4 1.5H8C8.27614 1.5 8.5 1.72386 8.5 2V2.5Z" fill="#898989"/>
</svg>
