<svg width="24" height="24" viewBox="0 0 24 24" fill="none" xmlns="http://www.w3.org/2000/svg">
<path d="M23.6191 17.7373C23.6191 18.2515 23.2062 18.6689 22.6973 18.6689L22.252 18.6689C21.7433 18.6692 21.3312 19.0856 21.3311 19.5996L21.3311 20.376C21.3309 20.8901 20.918 21.3066 20.4092 21.3066L19.4268 21.3066C18.9179 21.3066 18.5049 21.724 18.5049 22.2383L18.5049 22.6875C18.5049 23.2017 18.0928 23.6191 17.584 23.6191L6.2041 23.6191C5.69529 23.6191 5.2832 23.2017 5.2832 22.6875L5.2832 22.2383C5.2832 21.724 4.87022 21.3066 4.36133 21.3066L3.40918 21.3066C2.90042 21.3066 2.48842 20.8901 2.48828 20.376L2.48828 19.5996C2.48818 19.0855 2.07523 18.6689 1.56641 18.6689L0.921875 18.6689C0.412987 18.6689 2.34625e-07 18.2515 2.57103e-07 17.7373L7.75322e-07 5.88184C7.978e-07 5.3676 0.412988 4.9502 0.921876 4.9502L1.56641 4.9502C2.07521 4.9502 2.48815 4.53365 2.48828 4.01953L2.48828 3.24316C2.48838 2.72904 2.90039 2.31255 3.40918 2.3125L4.36133 2.3125C4.87022 2.3125 5.2832 1.8951 5.2832 1.38086L5.2832 0.930664C5.28344 0.416685 5.69543 8.72069e-05 6.2041 2.71188e-07L17.584 7.68621e-07C18.0927 8.23636e-05 18.5046 0.416683 18.5049 0.930665L18.5049 1.38086C18.5049 1.8951 18.9179 2.3125 19.4268 2.3125L20.4092 2.3125C20.918 2.3125 21.331 2.72902 21.3311 3.24316L21.3311 4.01953C21.3312 4.53351 21.7433 4.94997 22.252 4.9502L22.6973 4.9502C23.2062 4.9502 23.6191 5.3676 23.6191 5.88184L23.6191 17.7373Z" fill="#6DF2FE"/>
<path d="M12.5986 12.3379C12.5986 12.6497 12.3551 12.9031 12.0547 12.9033L6.14453 12.9033C5.84392 12.9033 5.60059 12.6498 5.60059 12.3379L5.60059 10.8779C5.60065 10.566 5.84396 10.3135 6.14453 10.3135L12.0547 10.3135C12.3551 10.3137 12.5986 10.5662 12.5986 10.8779L12.5986 12.3379ZM18.8281 12.3379C18.8281 12.6497 18.5846 12.9031 18.2842 12.9033L16.9736 12.9033C16.673 12.9033 16.4287 13.1558 16.4287 13.4678L16.4287 14.8271C16.4287 15.1391 16.1854 15.3926 15.8848 15.3926L14.584 15.3926C14.2836 15.3927 14.0403 15.6453 14.04 15.957L14.04 17.2969C14.04 17.6088 13.7958 17.8623 13.4951 17.8623L12.0879 17.8623C11.7874 17.8621 11.5439 17.6087 11.5439 17.2969L11.5439 15.8369C11.544 15.5251 11.7874 15.2727 12.0879 15.2725L13.3887 15.2725C13.6893 15.2725 13.9336 15.019 13.9336 14.707L13.9336 13.3672C13.9338 13.0554 14.1771 12.8028 14.4775 12.8027L15.7881 12.8027C16.0886 12.8027 16.3319 12.5501 16.332 12.2383L16.332 10.9785C16.332 10.6666 16.0887 10.4141 15.7881 10.4141L14.4775 10.4141C14.1769 10.414 13.9336 10.1606 13.9336 9.84863L13.9336 8.46875C13.9335 8.15689 13.6892 7.9043 13.3887 7.9043L12.0879 7.9043C11.7876 7.90408 11.5442 7.65148 11.5439 7.33984L11.5439 5.87891C11.5441 5.56716 11.7875 5.31467 12.0879 5.31445L13.4951 5.31445C13.7957 5.31445 14.0399 5.56703 14.04 5.87891L14.04 7.25879C14.04 7.57072 14.2834 7.82317 14.584 7.82324L15.8848 7.82324C16.1854 7.82324 16.4287 8.0767 16.4287 8.38867L16.4287 9.74805C16.4287 10.06 16.673 10.3135 16.9736 10.3135L18.2842 10.3135C18.5846 10.3137 18.8281 10.5661 18.8281 10.8779L18.8281 12.3379Z" fill="black"/>
</svg>
