<svg width="16" height="20" viewBox="0 0 16 20" fill="none" xmlns="http://www.w3.org/2000/svg">
<path d="M5 5.5C5 5.77614 5.22386 6 5.5 6H10.5C10.7761 6 11 5.77614 11 5.5V2H12.5C12.7761 2 13 2.22386 13 2.5V5.5C13 5.77614 13.2239 6 13.5 6H15.5C15.7761 6 16 6.22386 16 6.5V19.5C16 19.7761 15.7761 20 15.5 20H0.5C0.223858 20 0 19.7761 0 19.5V6.5C0 6.22386 0.223858 6 0.5 6H2.5C2.77614 6 3 5.77614 3 5.5V2.5C3 2.22386 3.22386 2 3.5 2H5V5.5ZM2 17.5C2 17.7761 2.22386 18 2.5 18H13.5C13.7761 18 14 17.7761 14 17.5V8.5C14 8.22386 13.7761 8 13.5 8H2.5C2.22386 8 2 8.22386 2 8.5V17.5ZM9 14.5C9 14.7761 8.77614 15 8.5 15H7.5C7.22386 15 7 14.7761 7 14.5V11.5C7 11.2239 7.22386 11 7.5 11H8.5C8.77614 11 9 11.2239 9 11.5V14.5ZM11 2H5V0.5C5 0.223858 5.22386 0 5.5 0H10.5C10.7761 0 11 0.223858 11 0.5V2Z" fill="#6DF2FE"/>
</svg>
