<svg width="24" height="24" viewBox="0 0 24 24" fill="none" xmlns="http://www.w3.org/2000/svg">
<path d="M22 19C22 19.5523 21.5523 20 21 20H3C2.44772 20 2 19.5523 2 19V5C2 4.44772 2.44772 4 3 4H21C21.5523 4 22 4.44772 22 5V19ZM4 17C4 17.5523 4.44772 18 5 18H19C19.5523 18 20 17.5523 20 17V7C20 6.44772 19.5523 6 19 6H5C4.44772 6 4 6.44772 4 7V17ZM14 13C14 13.5523 13.5523 14 13 14H11C10.4477 14 10 13.5523 10 13V12H14V13ZM10 12H9C8.44772 12 8 11.5523 8 11V10H9C9.55228 10 10 10.4477 10 11V12ZM16 11C16 11.5523 15.5523 12 15 12H14V11C14 10.4477 14.4477 10 15 10H16V11ZM8 10H7C6.44772 10 6 9.55228 6 9C6 8.44772 6.44772 8 7 8C7.55228 8 8 8.44772 8 9V10ZM18 9C18 9.55228 17.5523 10 17 10H16V9C16 8.44772 16.4477 8 17 8C17.5523 8 18 8.44772 18 9Z" fill="#6DF2FE"/>
</svg>
