<svg width="12" height="18" viewBox="0 0 12 18" fill="none" xmlns="http://www.w3.org/2000/svg">
<path d="M12 17.5C12 17.7761 11.7761 18 11.5 18H0.5C0.223858 18 0 17.7761 0 17.5V0.5C0 0.223858 0.223858 0 0.5 0H11.5C11.7761 0 12 0.223858 12 0.5V17.5ZM2 15.5C2 15.7761 2.22386 16 2.5 16H9.5C9.77614 16 10 15.7761 10 15.5V2.5C10 2.22386 9.77614 2 9.5 2H8.5C8.22386 2 8 2.22386 8 2.5V3.5C8 3.77614 7.77614 4 7.5 4H4.5C4.22386 4 4 3.77614 4 3.5V2.5C4 2.22386 3.77614 2 3.5 2H2.5C2.22386 2 2 2.22386 2 2.5V15.5ZM7 13.5C7 13.7761 6.77614 14 6.5 14H5.5C5.22386 14 5 13.7761 5 13.5V12.5C5 12.2239 5.22386 12 5.5 12H6.5C6.77614 12 7 12.2239 7 12.5V13.5Z" fill="white"/>
</svg>
