<svg width="20" height="20" viewBox="0 0 20 20" fill="none" xmlns="http://www.w3.org/2000/svg">
<path d="M12 19.5C12 19.7761 11.7761 20 11.5 20H8.5C8.22386 20 8 19.7761 8 19.5V18H12V19.5ZM7.5 16C7.77614 16 8 16.2239 8 16.5V18H6.5C6.22386 18 6 17.7761 6 17.5V16H7.5ZM14 17.5C14 17.7761 13.7761 18 13.5 18H12V16.5C12 16.2239 12.2239 16 12.5 16H14V17.5ZM6 16H4.5C4.22386 16 4 15.7761 4 15.5V14H5.5C5.77614 14 6 14.2239 6 14.5V16ZM16 15.5C16 15.7761 15.7761 16 15.5 16H14V14.5C14 14.2239 14.2239 14 14.5 14H16V15.5ZM4 14H2.5C2.22386 14 2 13.7761 2 13.5V12H3.5C3.77614 12 4 12.2239 4 12.5V14ZM18 13.5C18 13.7761 17.7761 14 17.5 14H16V12.5C16 12.2239 16.2239 12 16.5 12H18V13.5ZM20 1.99951C20 1.99978 19.9998 2 19.9995 2C19.9992 2 19.999 2.00022 19.999 2.00049V11.5C19.999 11.7761 19.7752 12 19.499 12H18V2.5C18 2.22386 17.7761 2 17.5 2H2.5C2.22386 2 2 2.22386 2 2.5V12H0.5C0.223858 12 0 11.7761 0 11.5V0.5C0 0.223858 0.223858 0 0.5 0H19.5C19.7761 0 20 0.223858 20 0.5V1.99951Z" fill="#6DF2FE"/>
</svg>
