<svg width="96" height="96" viewBox="0 0 96 96" fill="none" xmlns="http://www.w3.org/2000/svg">
<path d="M72.0947 0C74.1847 0.000179423 75.8789 1.67686 75.8789 3.74512V5.55566C75.8791 7.62377 77.5732 9.30063 79.6631 9.30078H82.8174C84.9074 9.30094 86.6016 10.9776 86.6016 13.0459V17.04C86.6016 19.1083 88.2958 20.785 90.3857 20.7852H92.2148C94.3049 20.7852 95.9999 22.462 96 24.5303V70.7832C95.9998 72.8514 94.3048 74.5283 92.2148 74.5283H90.3857C88.2958 74.5285 86.6016 76.2052 86.6016 78.2734V82.1426C86.6016 84.2109 84.9074 85.8875 82.8174 85.8877H79.6631C77.5731 85.8878 75.8789 87.5655 75.8789 89.6338V92.2549C75.8789 94.3231 74.1847 95.9998 72.0947 96H23.9053C21.8152 96 20.1211 94.3232 20.1211 92.2549V89.6338C20.1211 87.5654 18.426 85.8877 16.3359 85.8877H13.1826C11.0925 85.8877 9.39844 84.211 9.39844 82.1426V78.2734C9.39844 76.2051 7.70339 74.5283 5.61328 74.5283H3.78418C1.69435 74.5282 0.000227772 72.8513 0 70.7832V24.5303C0.000125039 22.4621 1.69428 20.7853 3.78418 20.7852H5.61328C7.70339 20.7852 9.39844 19.1084 9.39844 17.04V13.0459C9.39844 10.9775 11.0925 9.30078 13.1826 9.30078H16.3359C18.4259 9.30078 20.1209 7.62386 20.1211 5.55566V3.74512C20.1211 1.67676 21.8152 2.19586e-05 23.9053 0H72.0947Z" fill="#6DF2FE"/>
<g clip-path="url(#clip0_12149_34193)">
<path d="M80.7475 24.5645H73.9385C72.4746 24.5645 71.2876 25.7434 71.2876 27.1983V33.7108C71.2876 35.1649 70.1005 36.3447 68.6367 36.3447H62.0815C60.6176 36.3447 59.4306 37.5236 59.4306 38.9785V45.6493C59.4306 47.1034 58.2435 48.2831 56.7797 48.2831H49.9706C48.5067 48.2831 47.3197 49.462 47.3197 50.917V57.462C47.3197 58.9161 46.1327 60.0959 44.6688 60.0959H37.8598C36.3959 60.0959 35.2089 58.917 35.2089 57.462V50.917C35.2089 49.4629 34.0218 48.2831 32.5579 48.2831H26.1602C24.6963 48.2831 23.5093 47.1042 23.5093 45.6493V39.4796C23.5093 38.0256 22.3223 36.8458 20.8584 36.8458H14.0493C12.5855 36.8458 11.3984 38.0247 11.3984 39.4796V46.2436C11.3984 47.6976 12.5855 48.8774 14.0493 48.8774H20.4471C21.911 48.8774 23.098 50.0563 23.098 51.5113V57.6809C23.098 59.135 24.285 60.3148 25.7489 60.3148H32.3368C33.8007 60.3148 34.9877 61.4937 34.9877 62.9486V69.9324C34.9877 71.3864 36.1748 72.5662 37.6386 72.5662H44.8882C46.352 72.5662 47.5391 71.3873 47.5391 69.9324V62.9486C47.5391 61.4946 48.7261 60.3148 50.19 60.3148H56.7779C58.2418 60.3148 59.4288 59.1359 59.4288 57.6809V51.0102C59.4288 49.5561 60.6158 48.3763 62.0797 48.3763H68.8888C70.3526 48.3763 71.5397 47.1974 71.5397 45.7425V39.2299C71.5397 37.7759 72.7267 36.5961 74.1906 36.5961H80.7458C82.2096 36.5961 83.3967 35.4172 83.3967 33.9623V27.1983C83.3967 25.7442 82.2096 24.5645 80.7458 24.5645H80.7475Z" fill="#131313"/>
</g>
<defs>
<clipPath id="clip0_12149_34193">
<rect width="72" height="48" fill="white" transform="translate(11.3984 24.5645)"/>
</clipPath>
</defs>
</svg>
