<svg width="40" height="40" viewBox="0 0 40 40" fill="none" xmlns="http://www.w3.org/2000/svg">
<path d="M3.01887 22.2346V10C3.01887 9.38268 3.3566 8.88268 3.77359 8.88268H5.24528C5.66226 8.88268 6 8.38268 6 7.76536V5.58659C6 4.96927 6.33774 4.46927 6.75472 4.46927H11.2453C11.6623 4.46927 12 3.96927 12 3.35196V1.11732C12 0.5 11.6623 0 11.2453 0H6.71698C6.3 0 5.96226 0.5 5.96226 1.11732V3.29609C5.96226 3.91341 5.62453 4.41341 5.20755 4.41341H3.73585C3.31887 4.41341 2.98113 4.91341 2.98113 5.53073V7.7095C2.98113 8.32682 2.6434 8.82682 2.22642 8.82682H0.754717C0.337736 8.82682 0 9.32682 0 9.94413V30.0559C0 30.6732 0.337736 31.1732 0.754717 31.1732H2.22642C2.6434 31.1732 2.98113 31.6732 2.98113 32.2905V34.4693C2.98113 35.0866 3.31887 35.5866 3.73585 35.5866H5.20755C5.62453 35.5866 5.96226 36.0866 5.96226 36.7039V38.8827C5.96226 39.5 6.3 40 6.71698 40H11.2453C11.6623 40 12 39.5 12 38.8827V36.648C12 36.0307 11.6623 35.5307 11.2453 35.5307H6.75472C6.33774 35.5307 6 35.0307 6 34.4134V32.2346C6 31.6173 5.66226 31.1173 5.24528 31.1173H3.77359C3.3566 31.1173 3.01887 30.6173 3.01887 30V22.2346Z" fill="#6DF2FE"/>
<path d="M36.9811 17.7654V30C36.9811 30.6173 36.6434 31.1173 36.2264 31.1173H34.7547C34.3377 31.1173 34 31.6173 34 32.2346V34.4134C34 35.0307 33.6623 35.5307 33.2453 35.5307H28.7547C28.3377 35.5307 28 36.0307 28 36.648V38.8827C28 39.5 28.3377 40 28.7547 40H33.283C33.7 40 34.0377 39.5 34.0377 38.8827V36.7039C34.0377 36.0866 34.3755 35.5866 34.7925 35.5866H36.2642C36.6811 35.5866 37.0189 35.0866 37.0189 34.4693V32.2905C37.0189 31.6732 37.3566 31.1732 37.7736 31.1732H39.2453C39.6623 31.1732 40 30.6732 40 30.0559V9.94413C40 9.32681 39.6623 8.82681 39.2453 8.82681H37.7736C37.3566 8.82681 37.0189 8.32681 37.0189 7.7095V5.53072C37.0189 4.91341 36.6811 4.41341 36.2642 4.41341H34.7925C34.3755 4.41341 34.0377 3.91341 34.0377 3.29609V1.11732C34.0377 0.499996 33.7 0 33.283 0H28.7547C28.3377 0 28 0.499996 28 1.11732V3.35196C28 3.96927 28.3377 4.46927 28.7547 4.46927H33.2453C33.6623 4.46927 34 4.96927 34 5.58659V7.76536C34 8.38268 34.3377 8.88268 34.7547 8.88268H36.2264C36.6434 8.88268 36.9811 9.38268 36.9811 10V17.7654Z" fill="#6DF2FE"/>
<path d="M23.1014 17.9994C23.1014 17.9993 23.1014 17.9992 23.1015 17.9992H25.3702C25.8908 17.9992 26.3126 17.5753 26.3126 17.0522V14.7891C26.3126 14.266 26.7345 13.8421 27.255 13.8421H29.5576C30.0781 13.8421 30.5 13.4182 30.5 12.8951V10.447C30.5 9.92392 30.0781 9.5 29.5576 9.5H27.121C26.6005 9.5 26.1786 9.92392 26.1786 10.447V12.7101C26.1786 13.2332 25.7568 13.6571 25.2362 13.6571H22.9336C22.4131 13.6571 21.9912 14.081 21.9912 14.6041V16.884C21.9912 17.3754 21.6185 17.7794 21.1415 17.8262H18.8544C18.3774 17.7794 18.0047 17.3754 18.0047 16.884V14.6041C18.0047 14.081 17.5828 13.6571 17.0623 13.6571H14.8269C14.3063 13.6571 13.8844 13.2332 13.8844 12.7101V10.447C13.8844 9.92392 13.4626 9.5 12.942 9.5H10.5055C9.98492 9.5 9.56306 9.92392 9.56306 10.447V12.8954C9.56306 13.4185 9.98492 13.8424 10.5055 13.8424H12.7409C13.2614 13.8424 13.6833 14.2664 13.6833 14.7894V17.0525C13.6833 17.5756 14.1051 17.9995 14.6257 17.9995H16.8945C17.4151 17.9995 17.8369 18.4235 17.8369 18.9465V21.138C17.7944 21.6215 17.3905 22.0005 16.8986 22.0005H14.6298C14.1092 22.0005 13.6874 22.4244 13.6874 22.9475V25.2106C13.6874 25.7336 13.2655 26.1576 12.745 26.1576H10.4424C9.92186 26.1576 9.5 26.5815 9.5 27.1046V29.553C9.5 30.0761 9.92186 30.5 10.4424 30.5H12.879C13.3995 30.5 13.8214 30.0761 13.8214 29.553V27.2899C13.8214 26.7668 14.2432 26.3429 14.7638 26.3429H17.0664C17.5869 26.3429 18.0088 25.919 18.0088 25.3959V23.116C18.0088 22.6246 18.3814 22.2206 18.8585 22.1738H21.1456C21.6226 22.2206 21.9953 22.6246 21.9953 23.116V25.3959C21.9953 25.919 22.4172 26.3429 22.9377 26.3429H25.1731C25.6937 26.3429 26.1156 26.7668 26.1156 27.2899V29.553C26.1156 30.0761 26.5374 30.5 27.058 30.5H29.4945C30.0151 30.5 30.4369 30.0761 30.4369 29.553V27.1046C30.4369 26.5815 30.0151 26.1576 29.4945 26.1576H27.2591C26.7386 26.1576 26.3167 25.7336 26.3167 25.2106V22.9475C26.3167 22.4244 25.8949 22.0005 25.3743 22.0005H23.1055C22.5849 22.0005 22.1631 21.5765 22.1631 21.0535V18.862C22.2056 18.3785 22.6094 17.9996 23.1012 17.9995C23.1013 17.9995 23.1014 17.9995 23.1014 17.9994Z" fill="#6DF2FE"/>
</svg>
