<svg width="25" height="20" viewBox="0 0 25 20" fill="none" xmlns="http://www.w3.org/2000/svg">
<path d="M20.8727 0.367489L15.1512 6.11732C14.9173 6.35231 14.7857 6.67168 14.7857 7.00417V8.65224C14.7857 9.34472 14.2273 9.90596 13.5379 9.90596H11.1672C10.4779 9.90596 9.91949 9.34472 9.91949 8.65224V7.00417C9.91949 6.67168 9.78786 6.35294 9.55391 6.11732L3.83242 0.367489C3.59847 0.132496 3.28092 0 2.95027 0H1.24773C0.558361 0 0 0.561233 0 1.25371V3.08991C0 3.4224 0.131636 3.74114 0.365586 3.97676L5.9623 9.60096C6.19625 9.83596 6.5138 9.96845 6.84445 9.96845H8.60937C9.29874 9.96845 9.8571 10.5297 9.8571 11.2222V18.7457C9.8571 19.4382 10.4155 19.9994 11.1048 19.9994H13.6003C14.2897 19.9994 14.848 19.4382 14.848 18.7457V11.2222C14.848 10.5297 15.4064 9.96845 16.0958 9.96845H17.8607C18.1913 9.96845 18.5089 9.83658 18.7428 9.60096L24.3396 3.97676C24.5735 3.74176 24.7052 3.4224 24.7052 3.08991V1.25371C24.7052 0.561233 24.1468 0 23.4574 0H21.7549C21.4242 0 21.1067 0.131871 20.8727 0.367489Z" fill="#6DF2FE"/>
</svg>
