<svg width="39" height="39" viewBox="0 0 39 39" fill="none" xmlns="http://www.w3.org/2000/svg">
<path d="M15.8672 0C16.4554 0.000143126 16.9316 0.477008 16.9316 1.06543V3.19531C16.9316 3.78373 16.4554 4.2606 15.8672 4.26074H9.53125C8.9429 4.26074 8.46582 4.73766 8.46582 5.32617V7.40332C8.46564 7.99156 7.98945 8.46758 7.40137 8.46777H5.32422C4.73602 8.46791 4.25984 8.94484 4.25977 9.5332V28.5996C4.25977 29.188 4.73598 29.6649 5.32422 29.665H7.40137C7.98956 29.6652 8.46582 30.1421 8.46582 30.7305V32.8076C8.46591 33.396 8.94295 33.873 9.53125 33.873H15.8672C16.4553 33.8732 16.9315 34.3492 16.9316 34.9375V37.0684C16.9315 37.6567 16.4554 38.1336 15.8672 38.1338H9.47754C8.88926 38.1338 8.41319 37.6568 8.41309 37.0684V34.9912C8.41309 34.4027 7.93601 33.9258 7.34766 33.9258H5.27148C4.68313 33.9258 4.20605 33.4489 4.20605 32.8604V30.7832C4.20583 30.1949 3.72974 29.7188 3.1416 29.7188H1.06445C0.476322 29.7185 3.2589e-05 29.2417 0 28.6533V9.48047C0 8.89211 0.476302 8.41528 1.06445 8.41504H3.1416C3.72988 8.41495 4.20605 7.93807 4.20605 7.34961V5.27246C4.20614 4.68403 4.68319 4.20703 5.27148 4.20703H7.34766C7.93591 4.20703 8.41292 3.73095 8.41309 3.14258V1.06543C8.41309 0.476926 8.88919 1.00723e-05 9.47754 0H15.8672ZM28.6572 0C29.2456 0 29.7227 0.476919 29.7227 1.06543V3.14258C29.7228 3.73093 30.1989 4.207 30.7871 4.20703H32.8633C33.4516 4.20703 33.9286 4.68403 33.9287 5.27246V7.34961C33.9287 7.93801 34.405 8.41486 34.9932 8.41504H37.0703C37.6585 8.41518 38.1348 8.89205 38.1348 9.48047V28.6533C38.1347 29.2417 37.6585 29.7186 37.0703 29.7188H34.9932C34.4051 29.7189 33.9289 30.195 33.9287 30.7832V32.8604C33.9287 33.4489 33.4516 33.9258 32.8633 33.9258H30.7871C30.1988 33.9258 29.7227 34.4027 29.7227 34.9912V37.0684C29.7225 37.6568 29.2455 38.1338 28.6572 38.1338H22.2676C21.6795 38.1336 21.2032 37.6566 21.2031 37.0684V34.9375C21.2033 34.3493 21.6795 33.8733 22.2676 33.873H28.6045C29.1926 33.8729 29.6689 33.3959 29.6689 32.8076V30.7305C29.6689 30.142 30.146 29.665 30.7344 29.665H32.8105C33.3989 29.665 33.875 29.1881 33.875 28.5996V9.5332C33.8749 8.94478 33.3988 8.46781 32.8105 8.46777H30.7344C30.1461 8.46777 29.6691 7.99167 29.6689 7.40332V5.32617C29.6689 4.73778 29.1927 4.26093 28.6045 4.26074H22.2676C21.6794 4.2605 21.2031 3.78368 21.2031 3.19531V1.06543C21.2031 0.477066 21.6794 0.000238119 22.2676 0H28.6572ZM11.0547 10.5273C11.3363 10.5273 11.6073 10.6403 11.8066 10.8408L16.6826 15.752C16.8818 15.9531 16.994 16.2251 16.9941 16.5088V17.917C16.9942 18.5083 17.4702 18.9873 18.0576 18.9873H20.0771C20.6645 18.9873 21.1405 18.5083 21.1406 17.917V16.5088C21.1408 16.2251 21.253 15.9525 21.4521 15.752L26.3281 10.8408C26.5275 10.6398 26.7984 10.5273 27.0801 10.5273H28.5303C29.1176 10.5273 29.5935 11.0064 29.5938 11.5977V13.166C29.5938 13.45 29.4816 13.7231 29.2822 13.9238L24.5127 18.7275C24.3134 18.9285 24.0423 19.041 23.7607 19.041H22.2568C21.6697 19.0412 21.1945 19.5202 21.1943 20.1113V26.5371C21.1943 27.1285 20.7182 27.6073 20.1309 27.6074H18.0039C17.4166 27.6073 16.9404 27.1284 16.9404 26.5371V20.1113C16.9402 19.5202 16.4651 19.0412 15.8779 19.041H14.374C14.0924 19.041 13.8214 18.928 13.6221 18.7275L8.85254 13.9238C8.65318 13.7226 8.54102 13.45 8.54102 13.166V11.5977C8.54124 11.0064 9.01718 10.5273 9.60449 10.5273H11.0547ZM37.0684 0C37.6556 0 38.1338 0.477985 38.1338 1.06543C38.1337 1.65276 37.6556 2.12988 37.0684 2.12988C36.4814 2.12964 36.004 1.65261 36.0039 1.06543C36.0039 0.478132 36.4813 0.000239124 37.0684 0ZM37.0684 0.166992C36.5734 0.167231 36.1709 0.570269 36.1709 1.06543C36.171 1.56047 36.5735 1.96265 37.0684 1.96289C37.5634 1.96289 37.9667 1.56062 37.9668 1.06543C37.9668 0.570122 37.5635 0.166992 37.0684 0.166992ZM37.0918 0.416016C37.3612 0.416016 37.6059 0.585494 37.7002 0.837891L37.707 0.855469H37.5264L37.5225 0.848633C37.4389 0.684713 37.2738 0.582165 37.0908 0.582031C36.8242 0.582031 36.6076 0.798761 36.6074 1.06543C36.6074 1.33226 36.8241 1.5498 37.0908 1.5498H37.1035V1.55176C37.2818 1.54697 37.4415 1.44541 37.5225 1.28516L37.5264 1.27832H37.707L37.7002 1.2959C37.6054 1.54824 37.3611 1.71777 37.0918 1.71777C36.733 1.71763 36.4414 1.42528 36.4414 1.06641C36.4416 0.707726 36.7332 0.416155 37.0918 0.416016Z" fill="#6DF2FE"/>
</svg>
