<svg width="14" height="8" viewBox="0 0 14 8" fill="none" xmlns="http://www.w3.org/2000/svg">
<path d="M8 7.5C8 7.77614 7.77614 8 7.5 8H6.5C6.22386 8 6 7.77614 6 7.5V6H8V7.5Z" fill="white"/>
<path d="M6 6H4.5C4.22386 6 4 5.77614 4 5.5V4H5.5C5.77614 4 6 4.22386 6 4.5V6Z" fill="white"/>
<path d="M10 5.5C10 5.77614 9.77614 6 9.5 6H8V4.5C8 4.22386 8.22386 4 8.5 4H10V5.5Z" fill="white"/>
<path d="M4 4H2.5C2.22386 4 2 3.77614 2 3.5V2H3.5C3.77614 2 4 2.22386 4 2.5V4Z" fill="white"/>
<path d="M12 3.5C12 3.77614 11.7761 4 11.5 4H10V2.5C10 2.22386 10.2239 2 10.5 2H12V3.5Z" fill="white"/>
<path d="M2 2H0.5C0.223858 2 0 1.77614 0 1.5V0.5C0 0.223858 0.223858 0 0.5 0H1.5C1.77614 0 2 0.223858 2 0.5V2Z" fill="white"/>
<path d="M14 1.5C14 1.77614 13.7761 2 13.5 2H12V0.5C12 0.223858 12.2239 0 12.5 0H13.5C13.7761 0 14 0.223858 14 0.5V1.5Z" fill="white"/>
</svg>
