<svg width="12" height="12" viewBox="0 0 12 12" fill="none" xmlns="http://www.w3.org/2000/svg">
<path d="M6 12C9.32502 12 12 9.32502 12 6C12 2.67498 9.32502 0 6 0C2.67498 0 0 2.67498 0 6C0 9.32502 2.67498 12 6 12Z" fill="#2775CA"/>
<path d="M7.64979 6.9498C7.64979 6.07482 7.12478 5.77482 6.07478 5.64984C5.32478 5.54982 5.17478 5.34984 5.17478 4.9998C5.17478 4.64976 5.4248 4.42482 5.92478 4.42482C6.37478 4.42482 6.6248 4.57482 6.74978 4.94982C6.7748 5.02482 6.8498 5.0748 6.9248 5.0748H7.32476C7.42478 5.0748 7.49978 4.9998 7.49978 4.89984V4.87482C7.39977 4.3248 6.94976 3.89982 6.37478 3.84984V3.24984C6.37478 3.14982 6.29978 3.07482 6.1748 3.0498H5.7998C5.69978 3.0498 5.62478 3.1248 5.59976 3.24984V3.82482C4.84976 3.92484 4.3748 4.42482 4.3748 5.04984C4.3748 5.87484 4.87478 6.1998 5.92478 6.32484C6.6248 6.44982 6.8498 6.59982 6.8498 6.99984C6.8498 7.39986 6.49976 7.67484 6.0248 7.67484C5.37476 7.67484 5.14976 7.3998 5.07476 7.0248C5.0498 6.92484 4.9748 6.8748 4.8998 6.8748H4.47476C4.3748 6.8748 4.2998 6.9498 4.2998 7.04982V7.07484C4.39976 7.6998 4.79978 8.1498 5.62478 8.27484V8.87484C5.62478 8.9748 5.69978 9.0498 5.82476 9.07482H6.19976C6.29978 9.07482 6.37478 8.99982 6.3998 8.87484V8.27484C7.1498 8.1498 7.64979 7.6248 7.64979 6.9498Z" fill="white"/>
<path fill-rule="evenodd" clip-rule="evenodd" d="M2.50051 4.77496C1.77547 6.7 2.77549 8.875 4.72549 9.57496C4.80049 9.625 4.87549 9.72496 4.87549 9.79996V10.15C4.87549 10.2 4.87549 10.225 4.85047 10.25C4.82551 10.35 4.72549 10.4 4.62547 10.35C3.22549 9.89998 2.15047 8.82496 1.70047 7.42498C0.950468 5.05 2.25049 2.52496 4.62547 1.77496C4.65049 1.75 4.70047 1.75 4.72549 1.75C4.82551 1.77496 4.87549 1.84996 4.87549 1.94998V2.29996C4.87549 2.425 4.82551 2.5 4.72549 2.54998C3.70051 2.92498 2.87551 3.72496 2.50051 4.77496ZM7.15051 1.87498C7.17547 1.77496 7.27549 1.72498 7.37551 1.77496C8.75047 2.22496 9.85051 3.29998 10.3005 4.72498C11.0505 7.09996 9.75049 9.625 7.37551 10.375C7.35049 10.4 7.30051 10.4 7.27549 10.4C7.17547 10.375 7.12549 10.3 7.12549 10.2V9.85C7.12549 9.72496 7.17547 9.64996 7.27549 9.59998C8.30047 9.22498 9.12547 8.425 9.50047 7.375C10.2255 5.44996 9.22549 3.27496 7.27549 2.575C7.20049 2.52496 7.12549 2.425 7.12549 2.32498V1.975C7.12549 1.92496 7.12549 1.9 7.15051 1.87498Z" fill="white"/>
</svg>
