<svg width="24" height="24" viewBox="0 0 24 24" fill="none" xmlns="http://www.w3.org/2000/svg">
<path d="M17 20C17 20.5523 16.5523 21 16 21H8C7.44772 21 7 20.5523 7 20V19H17V20ZM7 19H6C5.44772 19 5 18.5523 5 18V17H6C6.55228 17 7 17.4477 7 18V19ZM19 18C19 18.5523 18.5523 19 18 19H17V18C17 17.4477 17.4477 17 18 17H19V18ZM5 17H4C3.44772 17 3 16.5523 3 16V8C3 7.44772 3.44772 7 4 7H5V17ZM21 16C21 16.5523 20.5523 17 20 17H19V7H20C20.5523 7 21 7.44772 21 8V16ZM12 14C12 14.5523 11.5523 15 11 15C10.4477 15 10 14.5523 10 14V13H12V14ZM10 13H9C8.44772 13 8 12.5523 8 12C8 11.4477 8.44772 11 9 11C9.55228 11 10 11.4477 10 12V13ZM14 11V12C14 12.5523 13.5523 13 13 13H12V12C12 11.4477 12.4477 11 13 11H14ZM16 10C16 10.5523 15.5523 11 15 11H14V10C14 9.44772 14.4477 9 15 9C15.5523 9 16 9.44772 16 10ZM7 6C7 6.55228 6.55228 7 6 7H5V6C5 5.44772 5.44772 5 6 5H7V6ZM19 7H18C17.4477 7 17 6.55228 17 6V5H18C18.5523 5 19 5.44772 19 6V7ZM17 5H7V4C7 3.44772 7.44772 3 8 3H16C16.5523 3 17 3.44772 17 4V5Z" fill="#6DF2FE"/>
</svg>
