<svg width="20" height="18" viewBox="0 0 20 18" fill="none" xmlns="http://www.w3.org/2000/svg">
<path d="M18 3C18 3.55228 18.4477 4 19 4C19.5523 4 20 4.44772 20 5V13C20 13.5523 19.5523 14 19 14C18.4477 14 18 14.4477 18 15V17C18 17.5523 17.5523 18 17 18H1C0.447716 18 0 17.5523 0 17V1C0 0.447716 0.447715 0 1 0H17C17.5523 0 18 0.447715 18 1V3ZM2 15C2 15.5523 2.44772 16 3 16H15C15.5523 16 16 15.5523 16 15C16 14.4477 15.5523 14 15 14H9C8.44771 14 8 13.5523 8 13V5C8 4.44772 8.44771 4 9 4H15C15.5523 4 16 3.55228 16 3C16 2.44772 15.5523 2 15 2H3C2.44772 2 2 2.44772 2 3V15ZM10 11C10 11.5523 10.4477 12 11 12H17C17.5523 12 18 11.5523 18 11V7C18 6.44772 17.5523 6 17 6H11C10.4477 6 10 6.44772 10 7V11ZM14 9C14 9.55229 13.5523 10 13 10C12.4477 10 12 9.55229 12 9C12 8.44771 12.4477 8 13 8C13.5523 8 14 8.44771 14 9Z" fill="#6DF2FE"/>
</svg>
