<svg width="12" height="12" viewBox="0 0 12 12" fill="none" xmlns="http://www.w3.org/2000/svg">
<path d="M4.99316 0C5.1782 4.06645e-05 5.328 0.149898 5.32812 0.334961V1.00586C5.32798 1.1909 5.17818 1.34078 4.99316 1.34082H2.99902C2.81403 1.34092 2.66417 1.49074 2.66406 1.67578V2.33008C2.66381 2.51502 2.51404 2.66498 2.3291 2.66504H1.67578C1.49063 2.66504 1.34082 2.8148 1.34082 3V9C1.34082 9.1852 1.49063 9.33496 1.67578 9.33496H2.3291C2.51404 9.33502 2.66381 9.48498 2.66406 9.66992V10.3242C2.66417 10.5093 2.81403 10.6591 2.99902 10.6592H4.99316C5.17818 10.6592 5.32798 10.8091 5.32812 10.9941V11.665C5.328 11.8501 5.1782 12 4.99316 12H2.98242C2.79737 12 2.64759 11.8501 2.64746 11.665V11.0107C2.64723 10.8258 2.49738 10.6759 2.3125 10.6758H1.65918C1.47405 10.6758 1.32326 10.526 1.32324 10.3408V9.6875C1.32324 9.5023 1.17343 9.35156 0.988281 9.35156H0.334961C0.149882 9.35148 0 9.20175 0 9.0166V2.9834C0 2.79825 0.149882 2.64852 0.334961 2.64844H0.988281C1.17343 2.64844 1.32324 2.4977 1.32324 2.3125V1.65918C1.32326 1.474 1.47405 1.32422 1.65918 1.32422H2.3125C2.49738 1.32408 2.64723 1.17417 2.64746 0.989258V0.334961C2.64759 0.149882 2.79737 1.46288e-05 2.98242 0H4.99316ZM9.01758 0C9.20263 1.78343e-05 9.35241 0.149884 9.35254 0.334961V0.989258C9.35277 1.17417 9.50262 1.32408 9.6875 1.32422H10.3408C10.526 1.32422 10.6767 1.474 10.6768 1.65918V2.3125C10.6768 2.4977 10.8266 2.64844 11.0117 2.64844H11.665C11.8501 2.64852 12 2.79825 12 2.9834V9.0166C12 9.20175 11.8501 9.35148 11.665 9.35156H11.0117C10.8266 9.35156 10.6768 9.5023 10.6768 9.6875V10.3408C10.6767 10.526 10.526 10.6758 10.3408 10.6758H9.6875C9.50262 10.6759 9.35277 10.8258 9.35254 11.0107V11.665C9.35241 11.8501 9.20263 12 9.01758 12H7.00684C6.8218 12 6.672 11.8501 6.67188 11.665V10.9941C6.67202 10.8091 6.82181 10.6592 7.00684 10.6592H9.00098C9.18597 10.6591 9.33583 10.5093 9.33594 10.3242V9.66992C9.33619 9.48498 9.48596 9.33502 9.6709 9.33496H10.3242C10.5094 9.33496 10.6592 9.1852 10.6592 9V3C10.6592 2.8148 10.5094 2.66504 10.3242 2.66504H9.6709C9.48596 2.66498 9.33619 2.51502 9.33594 2.33008V1.67578C9.33583 1.49074 9.18597 1.34092 9.00098 1.34082H7.00684C6.82181 1.34078 6.67202 1.19091 6.67188 1.00586V0.334961C6.672 0.149896 6.8218 3.74596e-05 7.00684 0H9.01758ZM3.47852 3.3125C3.56707 3.3125 3.65213 3.34813 3.71484 3.41113L5.24902 4.95703C5.31176 5.02036 5.34766 5.10595 5.34766 5.19531V5.6377C5.34766 5.8238 5.49775 5.97461 5.68262 5.97461H6.31738C6.50225 5.97461 6.65234 5.8238 6.65234 5.6377V5.19531C6.65234 5.10595 6.68824 5.02019 6.75098 4.95703L8.28516 3.41113C8.34787 3.34797 8.43293 3.3125 8.52148 3.3125H8.97754C9.16239 3.3125 9.31248 3.46332 9.3125 3.64941V4.14258C9.3125 4.23175 9.27733 4.31774 9.21484 4.38086L7.71387 5.89258C7.65124 5.95579 7.56604 5.99109 7.47754 5.99121H7.00391C6.81918 5.99121 6.66917 6.14221 6.66895 6.32812V8.35059C6.66893 8.53656 6.51965 8.6873 6.33496 8.6875H5.66504C5.48035 8.6873 5.33107 8.53656 5.33105 8.35059V6.32812C5.33083 6.14221 5.18082 5.99121 4.99609 5.99121H4.52246C4.43396 5.99109 4.34876 5.95562 4.28613 5.89258L2.78516 4.38086C2.72267 4.31758 2.6875 4.23175 2.6875 4.14258V3.64941C2.68752 3.46332 2.83761 3.3125 3.02246 3.3125H3.47852ZM11.665 0C11.8497 7.91911e-05 11.9999 0.150257 12 0.334961C12 0.519772 11.8498 0.669843 11.665 0.669922C11.4802 0.669922 11.3301 0.519821 11.3301 0.334961C11.3302 0.150208 11.4803 0 11.665 0ZM11.665 0.0527344C11.5093 0.0527344 11.3829 0.179203 11.3828 0.334961C11.3828 0.490827 11.5092 0.618164 11.665 0.618164C11.8208 0.618085 11.9473 0.490778 11.9473 0.334961C11.9471 0.179251 11.8207 0.0528136 11.665 0.0527344ZM11.6719 0.130859C11.7566 0.130927 11.8336 0.184281 11.8633 0.263672L11.8652 0.268555H11.8086L11.8076 0.266602C11.7813 0.214995 11.7285 0.182617 11.6709 0.182617C11.5872 0.182786 11.5197 0.251204 11.5195 0.334961C11.5195 0.418823 11.5871 0.487135 11.6709 0.487305H11.6758C11.7317 0.485655 11.7822 0.454623 11.8076 0.404297L11.8086 0.402344H11.8652L11.8633 0.407227C11.8335 0.486618 11.7566 0.539972 11.6719 0.540039C11.5591 0.540039 11.467 0.448709 11.4668 0.335938C11.4668 0.222977 11.5589 0.130859 11.6719 0.130859Z" fill="white"/>
</svg>
