<svg width="320" height="320" viewBox="0 0 320 320" fill="none" xmlns="http://www.w3.org/2000/svg">
<g opacity="0.1">
<path d="M133.149 0C138.086 0.000209124 142.085 4.00009 142.085 8.93848V26.8154C142.085 31.7538 138.086 35.7537 133.149 35.7539H79.9785C75.0415 35.754 71.0432 39.7541 71.043 44.6924V62.123C71.0429 67.0615 67.0436 71.0615 62.1064 71.0615H44.6807C39.7435 71.0616 35.7451 75.0615 35.7451 80V240C35.7451 244.938 39.7435 248.938 44.6807 248.938H62.1064C67.0436 248.938 71.0429 252.938 71.043 257.877V275.308C71.0432 280.246 75.0415 284.246 79.9785 284.246H133.149C138.086 284.246 142.085 288.246 142.085 293.185V311.062C142.085 316 138.086 320 133.149 320H79.5322C74.595 320 70.5957 316 70.5957 311.062V293.631C70.5955 288.693 66.5963 284.692 61.6592 284.692H44.2344C39.2971 284.692 35.2979 280.692 35.2979 275.754V258.324C35.2979 253.386 31.2986 249.386 26.3613 249.386H8.93652C3.9994 249.386 0.000184236 245.386 0 240.447V79.5527C0.000182052 74.6143 3.9994 70.6143 8.93652 70.6143H26.3613C31.2986 70.6143 35.2979 66.6143 35.2979 61.6758V44.2461C35.2979 39.3075 39.2971 35.3076 44.2344 35.3076H61.6592C66.5963 35.3076 70.5955 31.3075 70.5957 26.3691V8.93848C70.5957 3.99996 74.595 0 79.5322 0H133.149ZM240.468 0C245.405 0 249.404 3.99996 249.404 8.93848V26.3691C249.405 31.3074 253.403 35.3074 258.34 35.3076H275.766C280.703 35.3076 284.702 39.3075 284.702 44.2461V61.6758C284.702 66.6142 288.701 70.614 293.638 70.6143H311.063C316.001 70.6143 320 74.6143 320 79.5527V240.447C320 245.386 316.001 249.386 311.063 249.386H293.638C288.701 249.386 284.702 253.386 284.702 258.324V275.754C284.702 280.692 280.703 284.692 275.766 284.692H258.34C253.403 284.693 249.405 288.693 249.404 293.631V311.062C249.404 316 245.405 320 240.468 320H186.851C181.913 320 177.915 316 177.915 311.062V293.185C177.915 288.246 181.913 284.246 186.851 284.246H240.021C244.958 284.246 248.957 280.246 248.957 275.308V257.877C248.957 252.938 252.956 248.938 257.894 248.938H275.319C280.256 248.938 284.255 244.938 284.255 240V80C284.255 75.0616 280.256 71.0617 275.319 71.0615H257.894C252.956 71.0615 248.957 67.0615 248.957 62.123V44.6924C248.957 39.7541 244.958 35.7541 240.021 35.7539H186.851C181.913 35.7538 177.915 31.7539 177.915 26.8154V8.93848C177.915 4.00003 181.913 0.000117441 186.851 0H240.468ZM92.7637 88.333C95.1281 88.333 97.3993 89.2827 99.0723 90.9668L139.986 132.176C141.659 133.864 142.601 136.148 142.601 138.531V150.343C142.601 155.306 146.594 159.328 151.523 159.328H168.477C173.406 159.328 177.399 155.306 177.399 150.343V138.531C177.399 136.148 178.341 133.86 180.014 132.176L220.928 90.9668C222.601 89.2783 224.872 88.333 227.236 88.333H239.411C244.341 88.3332 248.333 92.3556 248.333 97.3184V110.479C248.333 112.861 247.392 115.15 245.719 116.834L205.697 157.143C204.024 158.831 201.753 159.776 199.389 159.776H186.768C181.838 159.776 177.845 163.799 177.845 168.762V222.682C177.845 227.644 173.852 231.667 168.923 231.667H151.077C146.148 231.667 142.155 227.644 142.155 222.682V168.762C142.155 163.799 138.162 159.776 133.232 159.776H120.611C118.247 159.776 115.976 158.827 114.303 157.143L74.2812 116.834C72.6083 115.145 71.667 112.861 71.667 110.479V97.3184C71.6671 92.3557 75.6594 88.3332 80.5889 88.333H92.7637ZM311.063 0C315.992 0 320 4.0089 320 8.93848C320 13.8681 315.992 17.877 311.063 17.877C306.135 17.8767 302.128 13.8679 302.128 8.93848C302.128 4.00904 306.135 0.000225481 311.063 0ZM311.063 1.40332C306.908 1.40355 303.53 4.78222 303.53 8.93848C303.53 13.0948 306.908 16.4734 311.063 16.4736C315.219 16.4736 318.597 13.0949 318.597 8.93848C318.597 4.78208 315.219 1.40332 311.063 1.40332ZM311.248 3.48633C313.509 3.48645 315.564 4.90717 316.354 7.02539L316.408 7.17285H314.894L314.862 7.11523C314.161 5.7387 312.771 4.87989 311.234 4.87988C308.996 4.87988 307.178 6.69937 307.178 8.93848C307.178 11.1775 308.996 12.9961 311.234 12.9961H311.346V13.0146C312.842 12.9744 314.183 12.1245 314.862 10.7793L314.894 10.7217H316.408L316.354 10.8691C315.559 12.9874 313.509 14.4091 311.248 14.4092C308.237 14.4092 305.788 11.9596 305.788 8.94727C305.788 5.935 308.237 3.48633 311.248 3.48633Z" fill="#6DF2FE"/>
</g>
</svg>
