<svg width="60" height="60" viewBox="0 0 60 60" fill="none" xmlns="http://www.w3.org/2000/svg">
<path d="M24.9658 0C25.8913 0.000239978 26.6406 0.749994 26.6406 1.67578V5.02734C26.6406 5.95317 25.8913 6.70386 24.9658 6.7041H14.9961C14.0704 6.7041 13.3203 7.45391 13.3203 8.37988V11.6475C13.3203 12.5734 12.5703 13.3242 11.6445 13.3242H8.37793C7.4522 13.3242 6.70215 14.074 6.70215 15V45C6.70226 45.9259 7.45227 46.6758 8.37793 46.6758H11.6445C12.5702 46.6758 13.3202 47.4257 13.3203 48.3516V51.6201C13.3204 52.546 14.0704 53.2959 14.9961 53.2959H24.9658C25.8913 53.2961 26.6405 54.0459 26.6406 54.9717V58.3242C26.6404 59.2498 25.8912 59.9998 24.9658 60H14.9121C13.9866 60 13.2366 59.25 13.2363 58.3242V55.0557C13.2363 54.1298 12.4871 53.3801 11.5615 53.3799H8.29395C7.36836 53.3799 6.61839 52.6299 6.61816 51.7041V48.4355C6.61816 47.5096 5.86811 46.7598 4.94238 46.7598H1.67578C0.750185 46.7598 0.000216342 46.0098 0 45.084V14.916C2.39122e-05 13.9901 0.750066 13.2402 1.67578 13.2402H4.94238C5.868 13.2402 6.61798 12.4903 6.61816 11.5645V8.2959C6.6182 7.36995 7.36824 6.62012 8.29395 6.62012H11.5615C12.487 6.61991 13.2362 5.87004 13.2363 4.94434V1.67578C13.2364 0.749878 13.9865 5.13316e-05 14.9121 0H24.9658ZM45.0889 0C46.0143 0.000240272 46.7636 0.750019 46.7637 1.67578V4.94434C46.7638 5.87018 47.5138 6.6201 48.4395 6.62012H51.707C52.6326 6.62026 53.3818 7.37007 53.3818 8.2959V11.5645C53.382 12.4902 54.1321 13.2401 55.0576 13.2402H58.3252C59.2508 13.2403 60.0009 13.9901 60.001 14.916V45.084C60.0008 46.0098 59.2508 46.7597 58.3252 46.7598H55.0576C54.132 46.7599 53.3819 47.5097 53.3818 48.4355V51.7041C53.3816 52.6298 52.6325 53.3797 51.707 53.3799H48.4395C47.5137 53.3799 46.7637 54.1297 46.7637 55.0557V58.3242C46.7635 59.2499 46.0143 59.9998 45.0889 60H35.0352C34.1096 60 33.3596 59.25 33.3594 58.3242V54.9717C33.3595 54.0458 34.1095 53.2959 35.0352 53.2959H45.0049C45.9304 53.2958 46.6796 52.5459 46.6797 51.6201V48.3516C46.6798 47.4258 47.4299 46.6759 48.3555 46.6758H51.623C52.5487 46.6757 53.2987 45.9259 53.2988 45V15C53.2988 14.074 52.5487 13.3243 51.623 13.3242H48.3555C47.43 13.3241 46.6799 12.5741 46.6797 11.6484V8.37988C46.6797 7.45399 45.9305 6.70423 45.0049 6.7041H35.0352C34.1096 6.70405 33.3596 5.95406 33.3594 5.02832V1.67578C33.3595 0.749903 34.1095 5.10232e-05 35.0352 0H45.0889ZM17.3906 16.5654C17.8339 16.5654 18.2596 16.7439 18.5732 17.0596L26.2451 24.7861C26.5587 25.1027 26.7353 25.5309 26.7354 25.9775V28.1924C26.7354 29.1229 27.4839 29.8769 28.4082 29.877H31.5869C32.5112 29.8769 33.2598 29.1229 33.2598 28.1924V25.9775C33.2598 25.5309 33.4364 25.1018 33.75 24.7861L41.4219 17.0596C41.7355 16.7431 42.1612 16.5654 42.6045 16.5654H44.8867C45.8109 16.5654 46.5593 17.3197 46.5596 18.25V20.7178C46.5596 21.1644 46.3837 21.5934 46.0703 21.9092L38.5654 29.4678C38.2518 29.7842 37.826 29.9609 37.3828 29.9609H35.0166C34.0924 29.9609 33.344 30.7151 33.3438 31.6455V41.7559C33.3438 42.6863 32.5951 43.4402 31.6709 43.4404H28.3242C27.4001 43.4402 26.6514 42.6863 26.6514 41.7559V31.6455C26.6512 30.7151 25.9027 29.9609 24.9785 29.9609H22.6123C22.1691 29.9609 21.7433 29.7833 21.4297 29.4678L13.9258 21.9092C13.6121 21.5926 13.4355 21.1646 13.4355 20.7178V18.25C13.4358 17.3197 14.1842 16.5654 15.1084 16.5654H17.3906Z" fill="#6DF2FE"/>
</svg>
