<svg width="80" height="80" viewBox="0 0 80 80" fill="none" xmlns="http://www.w3.org/2000/svg">
<path d="M60.0781 0C61.8199 7.53428e-08 63.2324 1.39745 63.2324 3.12109V4.62891C63.2324 6.35246 64.6441 7.74986 66.3857 7.75H69.0137C70.7554 7.75 72.1679 9.14752 72.168 10.8711V14.2002C72.168 15.9237 73.5797 17.3211 75.3213 17.3213H76.8457C78.5875 17.3213 80 18.7187 80 20.4424V58.9854C80 60.709 78.5875 62.1064 76.8457 62.1064H75.3213C73.5797 62.1066 72.168 63.504 72.168 65.2275V68.4521C72.168 70.1758 70.7554 71.5732 69.0137 71.5732H66.3857C64.6441 71.5734 63.2324 72.9708 63.2324 74.6943V76.8789C63.2324 78.6025 61.8199 80 60.0781 80H19.9209C18.1792 79.9999 16.7676 78.6025 16.7676 76.8789V74.6943C16.7676 72.9707 15.355 71.5732 13.6133 71.5732H10.9854C9.24366 71.5732 7.83203 70.1757 7.83203 68.4521V65.2275C7.83203 63.5039 6.41949 62.1064 4.67773 62.1064H3.15332C1.41175 62.1062 1.16767e-07 60.7089 0 58.9854V20.4424C-3.54954e-08 18.7189 1.41175 17.3215 3.15332 17.3213H4.67773C6.41949 17.3213 7.83203 15.9238 7.83203 14.2002V10.8711C7.83211 9.14757 9.24371 7.75007 10.9854 7.75H13.6133C15.355 7.75 16.7676 6.35255 16.7676 4.62891V3.12109C16.7676 1.3975 18.1792 8.54587e-05 19.9209 0H60.0781Z" fill="#6DF2FE"/>
<path d="M62.1598 25.233L47.338 37.8928C46.7319 38.4102 46.3909 39.1133 46.3909 39.8454V43.4741C46.3909 44.9988 44.9445 46.2345 43.1586 46.2345H37.0172C35.2313 46.2345 33.7849 44.9988 33.7849 43.4741V39.8454C33.7849 39.1133 33.4438 38.4115 32.8378 37.8928L18.016 25.233C17.4099 24.7156 16.5873 24.4238 15.7307 24.4238H11.3202C9.53436 24.4238 8.08789 25.6595 8.08789 27.1842V31.2271C8.08789 31.9592 8.4289 32.661 9.03496 33.1797L23.5335 45.5629C24.1396 46.0803 24.9622 46.3721 25.8188 46.3721H30.3909C32.1768 46.3721 33.6232 47.6078 33.6232 49.1325V65.6975C33.6232 67.2222 35.0697 68.4579 36.8556 68.4579H43.3202C45.1061 68.4579 46.5525 67.2222 46.5525 65.6975V49.1325C46.5525 47.6078 47.999 46.3721 49.7849 46.3721H54.357C55.2135 46.3721 56.0362 46.0817 56.6422 45.5629L71.1408 33.1797C71.7469 32.6623 72.0879 31.9592 72.0879 31.2271V27.1842C72.0879 25.6595 70.6414 24.4238 68.8556 24.4238H64.4451C63.5885 24.4238 62.7659 24.7142 62.1598 25.233Z" fill="#131313"/>
</svg>
