<svg width="30" height="30" viewBox="0 0 30 30" fill="none" xmlns="http://www.w3.org/2000/svg">
<rect x="0.362683" y="0.362683" width="28.2893" height="28.2893" rx="5.44025" fill="black"/>
<rect x="0.362683" y="0.362683" width="28.2893" height="28.2893" rx="5.44025" stroke="#6DF2FE" stroke-width="0.725367"/>
<path d="M20.6876 7.52047L16.5374 11.6912C16.3677 11.8617 16.2722 12.0933 16.2722 12.3345V13.53C16.2722 14.0323 15.8672 14.4394 15.3672 14.4394H13.6475C13.1475 14.4394 12.7425 14.0323 12.7425 13.53V12.3345C12.7425 12.0933 12.647 11.8621 12.4773 11.6912L8.3271 7.52047C8.1574 7.35001 7.92706 7.25391 7.68722 7.25391H6.45226C5.95221 7.25391 5.5472 7.66101 5.5472 8.16331V9.49522C5.5472 9.7364 5.64268 9.9676 5.81238 10.1385L9.87205 14.2181C10.0418 14.3886 10.2721 14.4847 10.5119 14.4847H11.7921C12.2922 14.4847 12.6972 14.8918 12.6972 15.3941V20.8514C12.6972 21.3537 13.1022 21.7608 13.6023 21.7608H15.4124C15.9125 21.7608 16.3175 21.3537 16.3175 20.8514V15.3941C16.3175 14.8918 16.7225 14.4847 17.2225 14.4847H18.5028C18.7426 14.4847 18.9729 14.389 19.1426 14.2181L23.2023 10.1385C23.372 9.96806 23.4675 9.7364 23.4675 9.49522V8.16331C23.4675 7.66101 23.0625 7.25391 22.5624 7.25391H21.3275C21.0876 7.25391 20.8573 7.34956 20.6876 7.52047Z" fill="#6DF2FE"/>
</svg>
