<svg width="40" height="40" viewBox="0 0 40 40" fill="none" xmlns="http://www.w3.org/2000/svg">
<rect x="0.5" y="0.5" width="39" height="39" rx="7.5" fill="black"/>
<rect x="0.5" y="0.5" width="39" height="39" rx="7.5" stroke="#6DF2FE"/>
<path d="M28.5192 10.3675L22.7977 16.1173C22.5638 16.3523 22.4321 16.6717 22.4321 17.0042V18.6522C22.4321 19.3447 21.8738 19.906 21.1844 19.906H18.8137C18.1243 19.906 17.566 19.3447 17.566 18.6522V17.0042C17.566 16.6717 17.4343 16.3529 17.2004 16.1173L11.4789 10.3675C11.245 10.1325 10.9274 10 10.5968 10H8.89422C8.20485 10 7.64648 10.5612 7.64648 11.2537V13.0899C7.64648 13.4224 7.77812 13.7411 8.01207 13.9768L13.6088 19.601C13.8427 19.836 14.1603 19.9685 14.4909 19.9685H16.2559C16.9452 19.9685 17.5036 20.5297 17.5036 21.2222V28.7457C17.5036 29.4382 18.062 29.9994 18.7513 29.9994H21.2468C21.9362 29.9994 22.4945 29.4382 22.4945 28.7457V21.2222C22.4945 20.5297 23.0529 19.9685 23.7423 19.9685H25.5072C25.8378 19.9685 26.1554 19.8366 26.3893 19.601L31.986 13.9768C32.22 13.7418 32.3516 13.4224 32.3516 13.0899V11.2537C32.3516 10.5612 31.7933 10 31.1039 10H29.4014C29.0707 10 28.7532 10.1319 28.5192 10.3675Z" fill="#6DF2FE"/>
</svg>
